<?xml version="1.0" encoding="UTF-8" standalone="no"?>
<!-- Created with Inkscape (http://www.inkscape.org/) -->

<svg
   width="180"
   height="180"
   viewBox="0 0 47.624999 47.624999"
   version="1.1"
   id="svg1"
   inkscape:version="1.4.2 (f4327f4, 2025-05-13)"
   sodipodi:docname="favicon.svg"
   inkscape:export-filename="apple-touch-icons.png"
   inkscape:export-xdpi="96"
   inkscape:export-ydpi="96"
   xmlns:inkscape="http://www.inkscape.org/namespaces/inkscape"
   xmlns:sodipodi="http://sodipodi.sourceforge.net/DTD/sodipodi-0.dtd"
   xmlns="http://www.w3.org/2000/svg"
   xmlns:svg="http://www.w3.org/2000/svg">
  <sodipodi:namedview
     id="namedview1"
     pagecolor="#ffffff"
     bordercolor="#000000"
     borderopacity="0.25"
     inkscape:showpageshadow="2"
     inkscape:pageopacity="0.0"
     inkscape:pagecheckerboard="0"
     inkscape:deskcolor="#d1d1d1"
     inkscape:document-units="mm"
     inkscape:zoom="3.0467172"
     inkscape:cx="65.480314"
     inkscape:cy="89.768752"
     inkscape:window-width="1920"
     inkscape:window-height="1057"
     inkscape:window-x="-8"
     inkscape:window-y="-8"
     inkscape:window-maximized="1"
     inkscape:current-layer="layer1"
     inkscape:export-bgcolor="#ffffff00" />
  <defs
     id="defs1">
    <rect
       x="22.975549"
       y="26.585993"
       width="135.88396"
       height="137.52507"
       id="rect1" />
    <rect
       x="22.97555"
       y="26.585993"
       width="135.88396"
       height="137.52507"
       id="rect1-4" />
    <rect
       x="22.97555"
       y="26.585993"
       width="135.88396"
       height="137.52507"
       id="rect1-5" />
    <rect
       x="22.97555"
       y="26.585993"
       width="135.88396"
       height="137.52507"
       id="rect1-48" />
  </defs>
  <rect
     style="fill:#ffffff;stroke-width:0.264583"
     id="rect2"
     width="44"
     height="44"
     x="1.8125"
     y="1.8125"
     rx="5"
     ry="5" />
  <g
     inkscape:label="Layer 1"
     inkscape:groupmode="layer"
     id="layer1">
    <g
       id="g1"
       transform="translate(-0.61829462,-0.04681383)">
      <path
         style="font-style:italic;font-size:112px;font-family:Elephant;-inkscape-font-specification:'Elephant Italic';white-space:pre"
         d="m 66.766609,129.91044 q -15.232,0 -25.312,-9.968 -10.08,-9.968 -10.08,-24.863999 0,-19.488 15.904,-34.384 16.016,-15.008 39.088,-15.008 8.064,0 13.664001,2.352 5.6,2.24 11.424,4.592 2.688,0 5.264,-2.016 2.688,-2.128 4.144,-4.928 h 2.016 l -15.904,39.648 h -2.128 q 0,-1.904 0.112,-8.288 0.224,-6.496 0.224,-7.28 0,-11.536 -1.792,-16.016 -1.68,-4.592 -8.400001,-4.592 -4.368,0 -8.848,3.136 -4.48,3.024 -8.736,8.624 -4.144,5.6 -7.616,11.984 -3.36,6.384 -5.6,12.208 -2.128,5.824 -3.584,12.096 -1.344,6.159999 -1.344,10.975999 0,8.736 2.8,13.328 2.912,4.592 10.304,4.592 5.376,0 9.296,-1.904 4.032,-1.904 7.392,-4.928 3.472,-3.024 5.6,-6.272 2.128,-3.36 4.032,-7.28 l 2.016001,0.896 q -4.704001,10.864 -13.552001,17.136 -8.848,6.16 -20.384,6.16 z"
         id="text1"
         transform="matrix(0.3289555,0,0,0.34070588,-6.9696434,-10.946191)"
         aria-label="C" />
      <path
         style="font-style:italic;font-size:112px;font-family:Elephant;-inkscape-font-specification:'Elephant Italic';white-space:pre"
         d="m 66.766609,129.91044 q -15.232,0 -25.312,-9.968 -10.08,-9.968 -10.08,-24.863999 0,-19.488 15.904,-34.384 16.016,-15.008 39.088,-15.008 8.064,0 13.664001,2.352 5.6,2.24 11.424,4.592 2.688,0 5.264,-2.016 2.688,-2.128 4.144,-4.928 h 2.016 l -15.904,39.648 h -2.128 q 0,-1.904 0.112,-8.288 0.224,-6.496 0.224,-7.28 0,-11.536 -1.792,-16.016 -1.68,-4.592 -8.400001,-4.592 -4.368,0 -8.848,3.136 -4.48,3.024 -8.736,8.624 -4.144,5.6 -7.616,11.984 -3.36,6.384 -5.6,12.208 -2.128,5.824 -3.584,12.096 -1.344,6.159999 -1.344,10.975999 0,8.736 2.8,13.328 2.912,4.592 10.304,4.592 5.376,0 9.296,-1.904 4.032,-1.904 7.392,-4.928 3.472,-3.024 5.6,-6.272 2.128,-3.36 4.032,-7.28 l 2.016001,0.896 q -4.704001,10.864 -13.552001,17.136 -8.848,6.16 -20.384,6.16 z"
         id="text1-2"
         transform="matrix(0.3289555,0,0,0.34070588,5.0888228,-1.1620472)"
         aria-label="C" />
      <path
         style="font-style:italic;font-size:53.3333px;font-family:Elephant;-inkscape-font-specification:'Elephant Italic';white-space:pre"
         d="m 36.254601,54.668065 q -0.853332,-1.706665 -1.226665,-2.933331 -0.373334,-1.226666 -0.373334,-3.306665 0,-4.85333 4.106665,-8.799995 4.106664,-3.946664 9.439994,-3.946664 3.733331,0 5.81333,1.439999 2.079999,1.439999 2.079999,3.893331 0,3.359998 -2.506666,4.959997 -2.506665,1.599999 -5.386663,2.879998 1.173333,1.333333 2.559998,3.039999 1.44,1.706665 2.773332,3.679997 1.066666,-2.666665 3.573331,-4.586663 2.506666,-1.973333 5.919997,-1.973333 2.879998,0 4.799997,1.653333 1.973332,1.599999 1.973332,4.213331 0,2.506665 -1.653332,4.21333 -1.653333,1.706666 -4.159998,1.706666 -2.453332,0 -4.159997,-1.226666 -1.706666,-1.279999 -1.706666,-3.626664 0,-1.706666 1.066666,-3.146665 0.533333,-0.586667 0.906666,-0.96 0.373333,-0.426666 0.373333,-0.853332 0,-0.373334 -0.373333,-0.373334 -1.226666,0 -3.253331,1.866666 -2.026666,1.813332 -2.559999,4.106664 2.613332,4.479998 3.466665,6.45333 0.853333,1.973332 0.853333,5.386663 0,6.506663 -4.586664,11.093327 -4.586664,4.586664 -11.039994,4.586664 -1.173332,0 -2.559998,-0.32 -1.333333,-0.266667 -2.559998,-0.959999 l 0.266666,-0.64 q 0.959999,0.533333 2.346665,0.746666 1.386666,0.266667 2.506665,0.266667 2.826665,0 4.639998,-1.653333 1.866665,-1.653332 1.866665,-4.69333 0,-2.293332 -0.853333,-4.319998 -0.799999,-2.026665 -2.506665,-4.426664 -1.493332,2.986665 -4.746664,5.333331 -3.199998,2.346665 -7.359995,2.346665 -3.626665,0 -6.399996,-2.453332 -2.719999,-2.506665 -2.719999,-6.29333 0,-4.319997 2.293332,-6.826662 2.293332,-2.506665 9.066661,-5.546664 z m 11.519994,-6.346663 q 2.026665,-1.066666 3.199998,-2.613331 1.226666,-1.546666 1.226666,-3.999998 0,-2.293332 -0.96,-3.733331 -0.906666,-1.439999 -3.413331,-1.439999 -1.599999,0 -3.146665,1.066666 -1.546666,1.013333 -1.546666,3.093331 0,1.813333 1.44,3.786665 1.493332,1.919999 3.199998,3.839997 z m -2.079999,19.199989 q -3.733331,-4.799997 -5.97333,-7.679995 -2.239999,-2.933332 -3.093331,-4.479998 -1.226666,0.64 -1.973333,1.653333 -0.746666,0.959999 -0.746666,2.293332 0,3.413331 2.826665,6.666662 2.879998,3.199998 5.546664,3.199998 1.333332,0 2.026665,-0.373333 0.746666,-0.373333 1.386666,-1.279999 z"
         id="text1-1"
         transform="matrix(0.3289555,0,0,0.34070588,22.504735,12.804776)"
         aria-label="&amp;" />
    </g>
  </g>
</svg>
