<?xml version="1.0" encoding="UTF-8" standalone="no"?>
<!-- Created with Inkscape (http://www.inkscape.org/) -->

<svg
   width="512mm"
   height="512mm"
   viewBox="0 0 512 512"
   version="1.1"
   id="svg1"
   xmlns="http://www.w3.org/2000/svg"
   xmlns:svg="http://www.w3.org/2000/svg">
  <defs
     id="defs1" />
  <g
     id="layer1">
    <path
       d="m 373.77344,705.71875 q -12.1875,0 -23.25,-3 -11.0625,-3 -20.25,-10.3125 l -1.6875,-3.5625 -1.875,-1.3125 q -5.4375,-7.125 -6.9375,-15.75 -1.5,-8.8125 -0.75,-18.5625 1.125,-10.125 5.25,-19.125 4.3125,-9 10.875,-16.875 l 1.875,-0.5625 1.125,-2.4375 1.875,-0.5625 0.5625,-1.875 14.4375,-10.3125 q 7.875,-4.125 17.4375,-3.5625 l 10.875,0.5625 v 3 l -3.5625,0.75 v 1.125 q 13.875,0 27,1.875 13.3125,1.6875 24.1875,9.5625 l 5.25,5.4375 q 6.75,9 9.75,20.25 3,11.0625 1.6875,23.625 -2.25,11.4375 -10.125,21.1875 l -4.875,4.125 h -1.125 l -0.5625,1.875 q -12.1875,8.4375 -26.625,12 -14.4375,3.5625 -30.5625,2.4375 z m 31.875,-12.75 q 9.5625,-5.4375 16.125,-13.125 h 1.3125 q 7.875,-11.4375 8.4375,-25.3125 -0.5625,-9.5625 -3.9375,-18 -3.375,-8.4375 -8.8125,-15.75 l -1.6875,-0.5625 q -5.4375,-5.4375 -12,-9 -7.875,-4.3125 -17.8125,-3.9375 -9.9375,0.375 -18.9375,-0.375 l -11.4375,7.875 -1.3125,2.4375 -1.6875,0.5625 -2.4375,4.3125 -8.4375,11.4375 q -4.3125,7.6875 -6.1875,16.125 -1.6875,8.4375 -1.125,18.1875 1.875,10.6875 9.1875,19.6875 l 1.125,0.75 3.5625,3.5625 v 1.125 q 6.75,3.75 14.25,6.375 7.5,2.625 15.9375,2.0625 13.875,-2.4375 25.875,-8.4375 z"
       id="text1"
       style="font-size:192px;font-family:'851MkPOP';-inkscape-font-specification:'851MkPOP';white-space:pre"
       transform="matrix(3.2947125,0,0,3.8746771,-999.14646,-2291.9406)"
       aria-label="〇" />
    <path
       d="m 376.06836,708.01367 q -12.1875,0 -23.25,-3 -11.0625,-3 -20.25,-10.3125 l -1.6875,-3.5625 -1.875,-1.3125 q -5.4375,-7.125 -6.9375,-15.75 -1.5,-8.8125 -0.75,-18.5625 1.125,-10.125 5.25,-19.125 4.3125,-9 10.875,-16.875 l 1.875,-0.5625 1.125,-2.4375 1.875,-0.5625 0.5625,-1.875 14.4375,-10.3125 q 7.875,-4.125 17.4375,-3.5625 l 10.875,0.5625 v 3 l -3.5625,0.75 v 1.125 q 13.875,0 27,1.875 13.3125,1.6875 24.1875,9.5625 l 5.25,5.4375 q 6.75,9 9.75,20.25 3,11.0625 1.6875,23.625 -2.25,11.4375 -10.125,21.1875 l -4.875,4.125 h -1.125 l -0.5625,1.875 q -12.1875,8.4375 -26.625,12 -14.4375,3.5625 -30.5625,2.4375 z m 31.875,-12.75 q 9.5625,-5.4375 16.125,-13.125 h 1.3125 q 7.875,-11.4375 8.4375,-25.3125 -0.5625,-9.5625 -3.9375,-18 -3.375,-8.4375 -8.8125,-15.75 l -1.6875,-0.5625 q -5.4375,-5.4375 -12,-9 -7.875,-4.3125 -17.8125,-3.9375 -9.9375,0.375 -18.9375,-0.375 l -11.4375,7.875 -1.3125,2.4375 -1.6875,0.5625 -2.4375,4.3125 -8.4375,11.4375 q -4.3125,7.6875 -6.1875,16.125 -1.6875,8.4375 -1.125,18.1875 1.875,10.6875 9.1875,19.6875 l 1.125,0.75 3.5625,3.5625 v 1.125 q 6.75,3.75 14.25,6.375 7.5,2.625 15.9375,2.0625 13.875,-2.4375 25.875,-8.4375 z"
       id="text1-2"
       style="font-size:192px;font-family:'851MkPOP';-inkscape-font-specification:'851MkPOP';white-space:pre;shape-padding:2.29584"
       transform="matrix(0.90782131,0,0,0.96249253,-166.0114,-455.10646)"
       aria-label="〇" />
    <path
       d="m 376.06836,708.01367 q -12.1875,0 -23.25,-3 -11.0625,-3 -20.25,-10.3125 l -1.6875,-3.5625 -1.875,-1.3125 q -5.4375,-7.125 -6.9375,-15.75 -1.5,-8.8125 -0.75,-18.5625 1.125,-10.125 5.25,-19.125 4.3125,-9 10.875,-16.875 l 1.875,-0.5625 1.125,-2.4375 1.875,-0.5625 0.5625,-1.875 14.4375,-10.3125 q 7.875,-4.125 17.4375,-3.5625 l 10.875,0.5625 v 3 l -3.5625,0.75 v 1.125 q 13.875,0 27,1.875 13.3125,1.6875 24.1875,9.5625 l 5.25,5.4375 q 6.75,9 9.75,20.25 3,11.0625 1.6875,23.625 -2.25,11.4375 -10.125,21.1875 l -4.875,4.125 h -1.125 l -0.5625,1.875 q -12.1875,8.4375 -26.625,12 -14.4375,3.5625 -30.5625,2.4375 z m 31.875,-12.75 q 9.5625,-5.4375 16.125,-13.125 h 1.3125 q 7.875,-11.4375 8.4375,-25.3125 -0.5625,-9.5625 -3.9375,-18 -3.375,-8.4375 -8.8125,-15.75 l -1.6875,-0.5625 q -5.4375,-5.4375 -12,-9 -7.875,-4.3125 -17.8125,-3.9375 -9.9375,0.375 -18.9375,-0.375 l -11.4375,7.875 -1.3125,2.4375 -1.6875,0.5625 -2.4375,4.3125 -8.4375,11.4375 q -4.3125,7.6875 -6.1875,16.125 -1.6875,8.4375 -1.125,18.1875 1.875,10.6875 9.1875,19.6875 l 1.125,0.75 3.5625,3.5625 v 1.125 q 6.75,3.75 14.25,6.375 7.5,2.625 15.9375,2.0625 13.875,-2.4375 25.875,-8.4375 z"
       id="text1-2-1"
       style="font-size:192px;font-family:'851MkPOP';-inkscape-font-specification:'851MkPOP';white-space:pre;shape-padding:2.29584"
       transform="matrix(0.90782131,0,0,0.96249253,-4.3398427,-453.51254)"
       aria-label="〇" />
    <path
       d="M 845.67031,54.741555 Q 829.51977,53.608184 816.76935,43.691187 805.71898,28.390676 808.55241,6.5732825 q 1.70005,-14.7338245 4.53348,-28.3342775 2.83343,-13.600454 1.70006,-29.184307 l -7.08357,-13.600453 q -13.60045,-7.366912 -30.88436,-6.233541 v -4.533484 q 16.15053,-2.833428 28.90096,-14.733825 l 2.83343,-3.683456 h 1.70005 q 13.60046,-20.684019 17.56726,-45.334849 4.25014,-24.65082 14.45048,-46.46821 l 9.06697,-7.08357 6.23354,-1.9834 h 37.40124 l 9.917,1.9834 v 4.53348 q -18.98396,-1.9834 -34.56782,3.40012 -13.60045,22.95076 -17.85059,49.86833 -3.9668,26.63422 -20.40068,48.451611 l -15.30051,9.916997 v 1.9834 q 10.76702,0.850028 18.13394,9.066969 8.21694,15.30051 5.38351,34.567819 -1.70006,12.750425 -3.9668,25.5008498 -2.26674,12.7504251 -2.26674,26.3508782 1.70005,10.767026 9.06697,18.983966 18.13393,12.750425 43.63478,9.066969 v 4.533485 l -3.68345,1.133371 z"
       id="text3"
       style="font-size:290.143px;font-family:'851MkPOP';-inkscape-font-specification:'851MkPOP';stroke-width:1.51117"
       transform="matrix(0.14902273,0.55278931,-1.7966468,0.04585106,0,0)"
       aria-label="{" />
    <path
       d="m 219.25956,-222.16625 v -0.29765 l -0.44648,-0.19844 q -3.37344,-4.26641 -4.91133,-9.27695 -1.48828,-5.01055 -0.99219,-10.76524 0.79375,-5.75469 3.02617,-11.06289 2.23242,-5.35781 5.70508,-10.12031 l 0.64492,-0.64492 h 4.61367 v 0.79375 h -0.44648 l -0.49609,0.99218 q -1.43868,1.73633 -2.67891,3.62149 -2.87734,4.96094 -4.56406,10.36836 -1.68672,5.40742 -1.33946,11.31094 0.44649,4.31601 2.18282,8.03671 1.78593,3.72071 3.86953,7.24297 z"
       id="text4"
       style="font-size:50.8px;font-family:'851MkPOP';-inkscape-font-specification:'851MkPOP';stroke-width:0.264583"
       transform="rotate(84.231485)"
       aria-label="(" />
    <path
       d="m 211.36263,-223.3637 v -0.29765 l -0.44648,-0.19844 q -3.37344,-4.26641 -4.91133,-9.27695 -1.48828,-5.01055 -0.99219,-10.76524 0.79375,-5.75468 3.02618,-11.06289 2.23242,-5.35781 5.70507,-10.12031 l 0.64493,-0.64492 h 4.61367 v 0.79375 h -0.44649 l -0.49609,0.99219 q -1.43867,1.73632 -2.67891,3.62148 -2.87734,4.96094 -4.56406,10.36836 -1.68672,5.40742 -1.33945,11.31094 0.44648,4.31601 2.18281,8.03672 1.78594,3.7207 3.86953,7.24296 z"
       id="text4-6"
       style="font-size:50.8px;font-family:'851MkPOP';-inkscape-font-specification:'851MkPOP';stroke-width:0.264583"
       transform="rotate(84.231485)"
       aria-label="(" />
    <path
       d="m -103.66128,-811.30608 -2.59848,-2.82444 q -2.48551,-9.82904 -4.29315,-20.11 -1.80764,-10.39393 -3.27635,-20.56191 h 9.82905 l 6.891628,35.58792 h 0.677866 q 5.422922,-7.68247 10.280956,-15.5909 4.971012,-8.0214 8.24736,-16.72067 h 10.167979 v 1.80764 q -3.615281,8.69927 -8.586293,16.72067 -4.858034,7.90843 -10.280956,15.92984 l -2.598484,2.93741 h -0.677865 l -0.338933,1.0168 q -5.874832,2.93742 -13.444328,1.80764 z"
       id="text6"
       style="font-size:115.689px;font-family:'851MkPOP';-inkscape-font-specification:'851MkPOP';stroke-width:0.602547"
       transform="matrix(0.17215505,-3.1340238,-0.32033207,0.02281855,0,0)"
       aria-label="v" />
  </g>
</svg>
