<?xml version="1.0" encoding="UTF-8" standalone="no"?>
<svg
   viewBox="0 0 228.66 39.08"
   version="1.1"
   id="svg14"
   sodipodi:docname="navbar-logo.svg"
   inkscape:version="1.4.2 (f4327f4, 2025-05-13)"
   xmlns:inkscape="http://www.inkscape.org/namespaces/inkscape"
   xmlns:sodipodi="http://sodipodi.sourceforge.net/DTD/sodipodi-0.dtd"
   xmlns="http://www.w3.org/2000/svg"
   xmlns:svg="http://www.w3.org/2000/svg">
  <defs
     id="defs14">
    <rect
       x="12.36"
       y="5.7937501"
       width="203.425"
       height="23.56125"
       id="rect14" />
  </defs>
  <sodipodi:namedview
     id="namedview14"
     pagecolor="#ffffff"
     bordercolor="#000000"
     borderopacity="0.25"
     inkscape:showpageshadow="2"
     inkscape:pageopacity="0.0"
     inkscape:pagecheckerboard="0"
     inkscape:deskcolor="#d1d1d1"
     inkscape:zoom="7.7669902"
     inkscape:cx="114.20125"
     inkscape:cy="19.505625"
     inkscape:window-width="1920"
     inkscape:window-height="1057"
     inkscape:window-x="-8"
     inkscape:window-y="-8"
     inkscape:window-maximized="1"
     inkscape:current-layer="svg14" />
  <style
     id="style1">.cls-1{fill:#fed136;}</style>
  <path
     style="font-size:18.6667px;font-family:'Freestyle Script';-inkscape-font-specification:'Freestyle Script';white-space:pre;fill:#ffd42a"
     d="m 20.042983,10.345022 q 0.610678,0 0.938803,0.437501 0.264324,0.346355 0.264324,0.838543 0,0.884116 -0.592449,2.014327 -0.519532,0.975262 -1.294273,1.750003 -0.510418,0.501303 -0.802085,0.501303 -0.191407,0 -0.35547,-0.191407 -0.118489,-0.136719 -0.118489,-0.309896 0,-0.319011 0.55599,-0.729168 0.783856,-0.583335 1.2487,-1.276044 0.683595,-1.002606 0.683595,-1.695316 0,-0.282552 -0.127604,-0.419271 -0.11849,-0.136719 -0.364584,-0.136719 -0.501303,0 -1.421878,0.729168 -1.048179,0.820314 -2.214847,2.233077 -1.48568,1.795576 -2.260421,3.536464 -0.802085,1.804691 -0.802085,3.080735 0,0.610678 0.35547,1.039064 0.391927,0.483074 0.957033,0.483074 0.984376,0 2.479171,-1.531253 0.446615,-0.464844 1.084637,-1.34896 0.419272,-0.565106 0.537761,-0.802085 0.136719,-0.264324 0.319011,-0.264324 0.200522,0 0.200522,0.191407 0,0.410157 -1.020836,1.841149 -0.847657,1.194013 -1.868492,1.950525 -1.14844,0.847657 -2.169275,0.847657 -1.066408,0 -1.649743,-0.957033 -0.373698,-0.610678 -0.373698,-1.394533 0,-1.968754 1.859378,-4.967457 1.58594,-2.552088 3.345058,-4.110685 1.522138,-1.339846 2.606776,-1.339846 z m 1.2487,8.722672 q 0.89323,-0.957033 2.059899,-1.868493 0.419272,-0.328125 0.893231,-0.610678 0.23698,-0.136719 0.300782,-0.136719 0.136719,0 0.273438,0.200521 0.08203,0.109375 0.08203,0.200521 0,0.164063 -0.346355,0.446616 -0.929689,0.738282 -0.929689,1.111981 0,0.209636 0.23698,0.209636 0.391928,0 1.348961,-0.647137 0.164062,-0.109375 0.273438,-0.109375 0.07292,0 0.145833,0.07292 0.08203,0.08203 0.08203,0.173177 0,0.273438 -0.765627,0.838543 -0.802085,0.601564 -1.522138,0.601564 -0.291667,0 -0.537761,-0.154948 -0.209636,-0.127605 -0.209636,-0.45573 0,-0.227865 0.191406,-0.519533 -0.720053,0.510418 -1.695315,1.750004 -0.565105,0.765626 -1.121096,1.886722 -0.209636,0.419271 -0.519532,0.419271 -0.33724,0 -0.33724,-0.319011 0,-0.309896 0.528647,-1.658857 0.783855,-2.005212 1.640627,-3.108078 0.528647,-0.683595 0.884117,-0.683595 0.118489,0 0.21875,0.07292 0.11849,0.09115 0.11849,0.227865 0,0.136719 -0.182292,0.382813 -0.03646,0.04557 -0.483074,0.610678 -0.410157,0.537761 -0.628907,1.066408 z m 4.757821,1.2487 v 0.164063 q 0,0.200521 0.100261,0.346355 0.227865,0.33724 0.747397,0.33724 1.139325,0 2.634119,-1.750003 0.264324,-0.300782 0.446616,-0.300782 0.10026,0 0.182292,0.100261 0.05469,0.07292 0.05469,0.136719 0,0.355469 -0.875001,1.203127 -0.683595,0.665366 -1.458336,1.084637 -0.774741,0.419272 -1.440107,0.419272 -0.683595,0 -1.075523,-0.473959 -0.264323,-0.328126 -0.264323,-0.893231 0,-1.540368 1.449221,-3.016933 1.175784,-1.203127 2.050785,-1.203127 0.23698,0 0.428386,0.145834 0.23698,0.191406 0.23698,0.501303 0,0.483073 -0.446615,1.184898 -0.920575,1.458336 -2.770839,2.014326 z m 0.200521,-0.710939 q 0.638022,-0.21875 1.002606,-0.492188 0.638022,-0.492188 1.011721,-1.111981 0.136719,-0.218751 0.136719,-0.391928 0,-0.182292 -0.173177,-0.182292 -0.23698,0 -0.674481,0.355469 -0.783855,0.628908 -1.303388,1.82292 z m 6.890637,0.957033 q -0.300782,0.528647 -0.592449,0.893231 -0.57422,0.710939 -1.139325,0.710939 -0.492188,0 -0.765626,-0.464845 -0.173178,-0.300781 -0.173178,-0.710938 0,-1.011721 0.638022,-2.233077 0.710939,-1.358076 1.713545,-2.087244 0.656251,-0.473959 1.266929,-0.473959 0.382814,0 0.638022,0.23698 0.218751,0.209636 0.218751,0.473959 0,0.200521 -0.154948,0.55599 0.136719,0.191407 0.136719,0.337241 0,0.191406 -0.255209,0.628907 -0.264324,0.446615 -0.528647,1.184898 -0.282553,0.783856 -0.282553,1.257815 0,0.382813 0.227865,0.628907 0.0638,0.0638 0.373699,0.209636 0.227865,0.109375 0.227865,0.382813 0,0.173178 -0.127604,0.282553 -0.136719,0.11849 -0.319011,0.11849 -0.492189,0 -0.847658,-0.437501 -0.291667,-0.35547 -0.291667,-0.893231 0,-0.182292 0.03646,-0.601564 z m 1.139325,-2.998703 q -0.109375,-0.200521 -0.23698,-0.291667 -0.127604,-0.100261 -0.273438,-0.100261 -0.692709,0 -1.503909,1.212242 -0.89323,1.339846 -0.89323,2.269535 0,0.227865 0.08203,0.346355 0.09115,0.11849 0.264323,0.11849 0.437501,0 1.020836,-0.929689 0.328125,-0.510418 0.811199,-1.503909 0.319011,-0.647137 0.464845,-0.856773 0.07292,-0.109375 0.264323,-0.264323 z m 4.347664,-1.36719 q -0.592449,0.920575 -1.093752,2.0599 -0.720053,1.622398 -0.720053,2.424483 0,0.227865 0.09115,0.346355 0.10026,0.11849 0.291667,0.11849 0.45573,0 1.102867,-0.856773 0.410157,-0.528646 0.729168,-1.057293 0.173177,-0.300782 0.373698,-0.300782 0.11849,0 0.200521,0.08203 0.07292,0.08203 0.07292,0.164063 0,0.33724 -0.884116,1.503909 -1.057294,1.403649 -1.932295,1.403649 -0.464845,0 -0.774741,-0.428387 -0.191407,-0.273438 -0.191407,-0.774741 0,-1.102866 0.638022,-2.570317 0.154948,-0.364584 0.856773,-1.759117 -0.246095,0.0638 -0.373699,0.0638 -0.191407,0 -0.33724,-0.09115 -0.200521,-0.127605 -0.200521,-0.319011 0,-0.227865 0.264323,-0.364584 0.07292,-0.03646 0.67448,-0.11849 0.218751,-0.03646 0.638022,-0.173177 0.319011,-0.57422 1.039065,-1.558597 0.401042,-0.546876 0.55599,-0.710939 0.218751,-0.227865 0.382814,-0.227865 0.118489,0 0.236979,0.127605 0.109375,0.118489 0.109375,0.236979 0,0.23698 -0.510417,0.938804 -0.33724,0.45573 -0.501303,0.738283 1.01172,-0.273438 1.449221,-0.273438 0.501303,0 0.501303,0.419271 0,0.209636 -0.173177,0.309897 -0.09115,0.05469 -0.473959,0.09115 -0.154949,-0.0091 -1.376305,0.346354 -0.33724,0.100261 -0.665366,0.209636 z m 1.932296,4.119799 v 0.164063 q 0,0.200521 0.100261,0.346355 0.227865,0.33724 0.747397,0.33724 1.139325,0 2.634119,-1.750003 0.264324,-0.300782 0.446616,-0.300782 0.10026,0 0.182292,0.100261 0.05469,0.07292 0.05469,0.136719 0,0.355469 -0.875001,1.203127 -0.683595,0.665366 -1.458336,1.084637 -0.774741,0.419272 -1.440107,0.419272 -0.683595,0 -1.075523,-0.473959 -0.264323,-0.328126 -0.264323,-0.893231 0,-1.540368 1.449221,-3.016933 1.175783,-1.203127 2.050785,-1.203127 0.23698,0 0.428386,0.145834 0.23698,0.191406 0.23698,0.501303 0,0.483073 -0.446616,1.184898 -0.920574,1.458336 -2.770838,2.014326 z m 0.200521,-0.710939 q 0.638022,-0.21875 1.002606,-0.492188 0.638022,-0.492188 1.011721,-1.111981 0.136719,-0.218751 0.136719,-0.391928 0,-0.182292 -0.173178,-0.182292 -0.236979,0 -0.67448,0.355469 -0.783856,0.628908 -1.303388,1.82292 z m 10.263041,-3.673183 q 0.154948,1.321617 0.255208,1.886722 0.109375,0.628907 0.45573,2.123702 0.938804,-1.38542 1.130211,-2.424484 -0.23698,-0.01823 -0.309897,-0.02734 -0.501303,-0.01823 -0.647136,-0.11849 -0.182292,-0.127604 -0.182292,-0.373698 0,-0.21875 0.118489,-0.355469 0.145834,-0.164063 0.382814,-0.164063 0.08203,0 0.446615,0.02734 0.07292,0.0091 0.136719,0.0091 0.656251,0 2.132816,-0.21875 0.483074,-0.07292 0.957033,-0.07292 0.865887,0 0.865887,0.601564 0,0.391927 -0.328125,0.391927 -0.154948,0 -0.510418,-0.07292 -0.182292,-0.04557 -0.410157,-0.04557 -0.45573,0 -1.895837,0.291667 -0.154948,0.774741 -0.583334,1.768232 -0.483074,1.084637 -0.984377,1.658857 0.273438,0.483074 0.464845,0.69271 0.391928,0.437501 1.02995,0.437501 0.309896,0 0.638022,-0.08203 0.364584,-0.08203 0.565105,-0.08203 0.33724,0 0.33724,0.33724 0,0.300782 -0.419272,0.510418 -0.619792,0.309896 -1.358075,0.309896 -1.203127,0 -1.996097,-1.276044 -1.212242,1.14844 -2.342452,1.14844 -1.285159,0 -2.041671,-1.057294 -0.519532,-0.720053 -0.519532,-1.750003 0,-1.285159 0.765626,-2.378911 0.792971,-1.111981 2.85287,-1.996097 -0.07292,-0.592449 -0.07292,-1.02995 0,-0.993491 0.282553,-1.740888 0.264323,-0.720054 0.91146,-1.212242 0.592449,-0.446616 1.276044,-0.446616 0.565105,0 0.938804,0.401043 0.401042,0.419271 0.401042,1.002606 0,0.79297 -0.555991,1.631513 -0.419271,0.610678 -1.485679,1.276044 -0.127605,0.07292 -0.701824,0.419272 z m -0.07292,-0.701824 q 0.729168,-0.410157 1.157554,-0.829429 0.701824,-0.701824 0.701824,-1.358075 0,-0.337241 -0.182292,-0.57422 -0.173177,-0.227865 -0.437501,-0.227865 -0.55599,0 -0.966147,0.647136 -0.319011,0.510418 -0.319011,1.658858 0,0.173177 0.04557,0.683595 z m -0.856773,1.166668 q -0.820314,0.382814 -1.385419,0.893231 -1.257815,1.13021 -1.257815,2.442713 0,0.802085 0.428387,1.36719 0.45573,0.610678 1.312502,0.610678 0.884116,0 1.795576,-0.929689 -0.33724,-0.820314 -0.592449,-2.205733 -0.173177,-1.294274 -0.300782,-2.17839 z M 64.89593,10.345022 q 0.610678,0 0.938804,0.437501 0.264323,0.346355 0.264323,0.838543 0,0.884116 -0.592449,2.014327 -0.519532,0.975262 -1.294273,1.750003 -0.510418,0.501303 -0.802085,0.501303 -0.191407,0 -0.355469,-0.191407 -0.11849,-0.136719 -0.11849,-0.309896 0,-0.319011 0.55599,-0.729168 0.783856,-0.583335 1.248701,-1.276044 0.683595,-1.002606 0.683595,-1.695316 0,-0.282552 -0.127605,-0.419271 -0.11849,-0.136719 -0.364584,-0.136719 -0.501303,0 -1.421877,0.729168 -1.048179,0.820314 -2.214848,2.233077 -1.48568,1.795576 -2.260421,3.536464 -0.802085,1.804691 -0.802085,3.080735 0,0.610678 0.35547,1.039064 0.391928,0.483074 0.957033,0.483074 0.984377,0 2.479171,-1.531253 0.446615,-0.464844 1.084637,-1.34896 0.419272,-0.565106 0.537762,-0.802085 0.136719,-0.264324 0.319011,-0.264324 0.200521,0 0.200521,0.191407 0,0.410157 -1.020835,1.841149 -0.847658,1.194013 -1.868493,1.950525 -1.14844,0.847657 -2.169275,0.847657 -1.066408,0 -1.649743,-0.957033 -0.373698,-0.610678 -0.373698,-1.394533 0,-1.968754 1.859378,-4.967457 1.585941,-2.552088 3.345058,-4.110685 1.522138,-1.339846 2.606776,-1.339846 z m 1.2487,8.722672 q 0.893231,-0.957033 2.059899,-1.868493 0.419272,-0.328125 0.893231,-0.610678 0.23698,-0.136719 0.300782,-0.136719 0.136719,0 0.273438,0.200521 0.08203,0.109375 0.08203,0.200521 0,0.164063 -0.346354,0.446616 -0.92969,0.738282 -0.92969,1.111981 0,0.209636 0.23698,0.209636 0.391928,0 1.348961,-0.647137 0.164063,-0.109375 0.273438,-0.109375 0.07292,0 0.145833,0.07292 0.08203,0.08203 0.08203,0.173177 0,0.273438 -0.765627,0.838543 -0.802084,0.601564 -1.522138,0.601564 -0.291667,0 -0.537761,-0.154948 -0.209636,-0.127605 -0.209636,-0.45573 0,-0.227865 0.191407,-0.519533 -0.720054,0.510418 -1.695316,1.750004 -0.565105,0.765626 -1.121096,1.886722 -0.209635,0.419271 -0.519532,0.419271 -0.33724,0 -0.33724,-0.319011 0,-0.309896 0.528647,-1.658857 0.783855,-2.005212 1.640628,-3.108078 0.528647,-0.683595 0.884116,-0.683595 0.11849,0 0.21875,0.07292 0.11849,0.09115 0.11849,0.227865 0,0.136719 -0.182292,0.382813 -0.03646,0.04557 -0.483074,0.610678 -0.410157,0.537761 -0.628907,1.066408 z m 4.75782,1.2487 v 0.164063 q 0,0.200521 0.10026,0.346355 0.227865,0.33724 0.747397,0.33724 1.139325,0 2.63412,-1.750003 0.264323,-0.300782 0.446615,-0.300782 0.100261,0 0.182292,0.100261 0.05469,0.07292 0.05469,0.136719 0,0.355469 -0.875002,1.203127 -0.683595,0.665366 -1.458336,1.084637 -0.774741,0.419272 -1.440107,0.419272 -0.683595,0 -1.075522,-0.473959 -0.264324,-0.328126 -0.264324,-0.893231 0,-1.540368 1.449222,-3.016933 1.175783,-1.203127 2.050785,-1.203127 0.236979,0 0.428386,0.145834 0.236979,0.191406 0.236979,0.501303 0,0.483073 -0.446615,1.184898 -0.920575,1.458336 -2.770838,2.014326 z m 0.200521,-0.710939 q 0.638022,-0.21875 1.002606,-0.492188 0.638022,-0.492188 1.01172,-1.111981 0.136719,-0.218751 0.136719,-0.391928 0,-0.182292 -0.173177,-0.182292 -0.23698,0 -0.67448,0.355469 -0.783856,0.628908 -1.303388,1.82292 z m 6.890638,0.957033 q -0.300782,0.528647 -0.592449,0.893231 -0.57422,0.710939 -1.139325,0.710939 -0.492188,0 -0.765626,-0.464845 -0.173178,-0.300781 -0.173178,-0.710938 0,-1.011721 0.638022,-2.233077 0.710939,-1.358076 1.713545,-2.087244 0.656251,-0.473959 1.26693,-0.473959 0.382813,0 0.638022,0.23698 0.21875,0.209636 0.21875,0.473959 0,0.200521 -0.154948,0.55599 0.136719,0.191407 0.136719,0.337241 0,0.191406 -0.255209,0.628907 -0.264323,0.446615 -0.528647,1.184898 -0.282552,0.783856 -0.282552,1.257815 0,0.382813 0.227865,0.628907 0.0638,0.0638 0.373698,0.209636 0.227865,0.109375 0.227865,0.382813 0,0.173178 -0.127604,0.282553 -0.136719,0.11849 -0.319011,0.11849 -0.492189,0 -0.847658,-0.437501 -0.291667,-0.35547 -0.291667,-0.893231 0,-0.182292 0.03646,-0.601564 z m 1.139325,-2.998703 q -0.109375,-0.200521 -0.236979,-0.291667 -0.127605,-0.100261 -0.273438,-0.100261 -0.69271,0 -1.503909,1.212242 -0.893231,1.339846 -0.893231,2.269535 0,0.227865 0.08203,0.346355 0.09115,0.11849 0.264324,0.11849 0.4375,0 1.020835,-0.929689 0.328125,-0.510418 0.811199,-1.503909 0.319011,-0.647137 0.464845,-0.856773 0.07292,-0.109375 0.264323,-0.264323 z m 4.347664,-1.36719 q -0.592449,0.920575 -1.093752,2.0599 -0.720053,1.622398 -0.720053,2.424483 0,0.227865 0.09115,0.346355 0.100261,0.11849 0.291667,0.11849 0.45573,0 1.102867,-0.856773 0.410157,-0.528646 0.729168,-1.057293 0.173177,-0.300782 0.373698,-0.300782 0.11849,0 0.200522,0.08203 0.07292,0.08203 0.07292,0.164063 0,0.33724 -0.884116,1.503909 -1.057293,1.403649 -1.932295,1.403649 -0.464845,0 -0.774741,-0.428387 -0.191407,-0.273438 -0.191407,-0.774741 0,-1.102866 0.638022,-2.570317 0.154949,-0.364584 0.856773,-1.759117 -0.246094,0.0638 -0.373699,0.0638 -0.191406,0 -0.33724,-0.09115 -0.200521,-0.127605 -0.200521,-0.319011 0,-0.227865 0.264323,-0.364584 0.07292,-0.03646 0.674481,-0.11849 0.21875,-0.03646 0.638022,-0.173177 0.319011,-0.57422 1.039064,-1.558597 0.401042,-0.546876 0.555991,-0.710939 0.21875,-0.227865 0.382813,-0.227865 0.11849,0 0.236979,0.127605 0.109376,0.118489 0.109376,0.236979 0,0.23698 -0.510418,0.938804 -0.33724,0.45573 -0.501303,0.738283 1.011721,-0.273438 1.449221,-0.273438 0.501303,0 0.501303,0.419271 0,0.209636 -0.173177,0.309897 -0.09115,0.05469 -0.473959,0.09115 -0.154948,-0.0091 -1.376305,0.346354 -0.33724,0.100261 -0.665366,0.209636 z m 3.609379,0.410157 q 0.154948,0 0.255209,0.11849 0.07292,0.100261 0.07292,0.200521 0,0.164063 -0.264323,0.546876 -0.947918,1.467451 -1.348961,2.415369 -0.428386,0.975262 -0.756512,2.005212 -0.145833,0.45573 -0.45573,0.45573 -0.182292,0 -0.291667,-0.145834 -0.10026,-0.118489 -0.10026,-0.255208 0,-0.273438 0.583334,-1.82292 0.45573,-1.221357 1.476565,-2.697922 0.328126,-0.483074 0.492189,-0.647136 0.164062,-0.173178 0.33724,-0.173178 z m 1.731774,-3.381516 q 0.410157,0 0.410157,0.419271 0,0.382813 -0.401043,0.847658 -0.382813,0.446615 -0.738282,0.446615 -0.173178,0 -0.282553,-0.127604 -0.109375,-0.11849 -0.109375,-0.291667 0,-0.437501 0.483074,-0.929689 0.355469,-0.364584 0.638022,-0.364584 z m 1.704433,6.352876 q -0.55599,0.957033 -0.957033,1.421877 -0.975262,1.14844 -1.622399,1.14844 -0.391927,0 -0.601563,-0.428386 -0.145834,-0.282553 -0.145834,-0.592449 0,-0.601564 0.519532,-1.740889 0.464845,-0.993491 0.783856,-1.567711 0.23698,-0.410157 0.282553,-0.537762 0.109375,-0.246094 0.191406,-0.373698 0.11849,-0.191407 0.328126,-0.191407 0.109375,0 0.191406,0.09115 0.09115,0.109376 0.09115,0.255209 0,0.410157 -0.738282,1.832035 -0.738283,1.403648 -0.738283,1.859378 0,0.291667 0.227865,0.291667 0.391928,0 1.111981,-1.020835 0.319011,-0.45573 0.665366,-1.157554 -0.0091,-0.227865 -0.0091,-0.346355 0,-0.683595 0.255208,-1.184898 0.328126,-0.647136 0.884116,-0.647136 0.319011,0 0.319011,0.382813 0,0.610678 -0.638021,1.795576 0.182291,0.03646 0.291667,0.03646 0.300781,0 0.783855,-0.382813 0.382813,-0.309896 0.501303,-0.309896 0.100261,0 0.209636,0.118489 0.08203,0.100261 0.08203,0.200522 0,0.328125 -0.45573,0.738282 -0.528646,0.464845 -1.203127,0.464845 -0.264323,0 -0.610678,-0.154948 z m 2.515628,0.738282 v 0.164063 q 0,0.200521 0.100261,0.346355 0.227865,0.33724 0.747397,0.33724 1.139325,0 2.634119,-1.750003 0.264323,-0.300782 0.446615,-0.300782 0.100261,0 0.182292,0.100261 0.05469,0.07292 0.05469,0.136719 0,0.355469 -0.875002,1.203127 -0.683595,0.665366 -1.458335,1.084637 -0.774741,0.419272 -1.440107,0.419272 -0.683595,0 -1.075523,-0.473959 -0.264323,-0.328126 -0.264323,-0.893231 0,-1.540368 1.449221,-3.016933 1.175783,-1.203127 2.050785,-1.203127 0.236979,0 0.428386,0.145834 0.23698,0.191406 0.23698,0.501303 0,0.483073 -0.446616,1.184898 -0.920574,1.458336 -2.770838,2.014326 z m 0.200521,-0.710939 q 0.638022,-0.21875 1.002606,-0.492188 0.638022,-0.492188 1.011721,-1.111981 0.136719,-0.218751 0.136719,-0.391928 0,-0.182292 -0.173178,-0.182292 -0.236979,0 -0.67448,0.355469 -0.783856,0.628908 -1.303388,1.82292 z"
     id="text14"
     transform="matrix(2.6458243,0,0,2.4362155,-31.824101,-20.819116)"
     aria-label="Create&amp;Creative " />
</svg>
