<?xml version="1.0" encoding="UTF-8" standalone="no"?>
<!-- Created with Inkscape (http://www.inkscape.org/) -->

<svg
   width="300mm"
   height="30mm"
   viewBox="0 0 300 30"
   version="1.1"
   id="svg1"
   inkscape:version="1.4.2 (f4327f4, 2025-05-13)"
   sodipodi:docname="subtitle.svg"
   xmlns:inkscape="http://www.inkscape.org/namespaces/inkscape"
   xmlns:sodipodi="http://sodipodi.sourceforge.net/DTD/sodipodi-0.dtd"
   xmlns="http://www.w3.org/2000/svg"
   xmlns:svg="http://www.w3.org/2000/svg">
  <sodipodi:namedview
     id="namedview1"
     pagecolor="#ffffff"
     bordercolor="#000000"
     borderopacity="0.25"
     inkscape:showpageshadow="2"
     inkscape:pageopacity="0.0"
     inkscape:pagecheckerboard="0"
     inkscape:deskcolor="#d1d1d1"
     inkscape:document-units="mm"
     inkscape:zoom="0.76167929"
     inkscape:cx="502.17986"
     inkscape:cy="246.1666"
     inkscape:window-width="1920"
     inkscape:window-height="1057"
     inkscape:window-x="-8"
     inkscape:window-y="-8"
     inkscape:window-maximized="1"
     inkscape:current-layer="layer1" />
  <defs
     id="defs1">
    <rect
       x="19.693329"
       y="35.44799"
       width="1100.2006"
       height="235.00705"
       id="rect1" />
  </defs>
  <g
     inkscape:label="Layer 1"
     inkscape:groupmode="layer"
     id="layer1">
    <path
       style="font-size:114.667px;font-family:'851MkPOP';-inkscape-font-specification:'851MkPOP';white-space:pre;fill:#ffffff"
       d="m 64.261197,153.47365 v -4.70314 l -2.12761,-0.67188 q -2.911467,-4.70313 -5.263036,-9.74221 -2.35157,-5.03908 -4.143241,-9.96618 l -1.007816,-0.44791 -8.622421,21.94798 H 41.64134 v 1.11979 H 31.899124 Q 29.435575,133.31734 27.419944,115.62458 25.404313,97.819843 23.94858,79.791144 l 10.078154,-0.335938 q 1.119795,12.989621 2.35157,25.979244 1.231774,12.87764 3.807302,25.0834 1.791672,-4.70313 3.919283,-9.29429 2.12761,-4.70314 4.703138,-9.40628 h 9.742216 v 2.12761 l -0.447918,1.45573 8.622421,21.16413 h 0.783856 q 3.919283,-14.33338 7.838565,-28.66675 4.031262,-14.445358 7.278667,-28.778732 h 10.078154 v 1.791671 q -4.3672,18.364637 -9.630236,36.393331 -5.151057,17.91672 -9.518257,36.16938 z m 52.294423,-1.45573 q -5.03908,-0.33594 -9.2943,-2.79949 l -0.44791,-1.1198 -1.00782,-0.33593 q -5.03908,-6.83075 -3.58334,-16.23703 1.45573,-8.28648 6.83075,-14.66931 l 6.83074,-5.03908 q 4.25523,-1.79167 9.40628,-1.79167 5.26304,0 10.30212,0 6.15887,0.33594 10.41409,5.03907 1.79167,2.79949 1.79167,6.38284 l -2.12761,5.48699 -1.00782,0.33594 -0.78385,1.45573 -1.1198,0.33594 -0.67187,1.00782 q -6.15888,5.03907 -13.6615,6.94272 -7.50263,1.79168 -16.12505,1.00782 v 1.45573 l 2.46355,6.15888 1.45573,0.67187 0.33594,1.1198 6.49481,2.12761 q 8.28648,-1.45574 19.70839,-10.41409 l 11.53389,1.00781 v 1.45573 l -0.33594,0.78386 q -8.28648,5.37502 -17.4688,8.06252 -9.18232,2.68751 -19.93235,1.56772 z m 7.16669,-18.70058 q 5.03908,-1.79167 9.40628,-5.37501 l 4.25522,-5.37502 0.44791,-2.46355 -2.91146,-4.70314 q -2.91147,-2.57553 -6.49481,-2.91146 -5.37502,1.45573 -9.2943,6.15887 l -1.45573,1.00781 q -5.03908,7.27867 -5.82294,16.23703 h 4.70314 z m 39.52876,18.25266 -2.57552,-2.23959 q -1.00782,-7.16669 -0.67188,-14.66931 1.79167,-16.90891 4.47918,-32.02614 2.68751,-15.22921 6.04689,-29.114667 h 9.2943 l 0.33594,3.247405 q -3.24741,14.893273 -6.38283,31.242282 -3.02345,16.23702 -4.03127,34.15374 l 1.34376,5.82294 8.62242,0.33593 v 1.79168 q -7.50263,2.12761 -16.46099,1.45573 z m 39.97668,0.11198 -5.37502,-2.12761 -3.91928,-5.03908 q -1.79167,-5.37501 -1.79167,-11.86983 4.59115,-15.34119 16.46098,-21.50006 l 8.62242,-2.91146 h 14.66932 l 3.58334,1.45573 1.11979,1.11979 q 1.79168,4.25522 1.1198,9.2943 l -2.23959,5.82294 h -9.96618 v -1.79168 q 2.12761,-4.03126 2.46355,-8.62242 l -2.12761,-3.58334 -2.91146,-0.78386 q -6.49481,2.12761 -12.20577,6.49481 l -1.79167,1.79167 q -4.70314,5.03908 -5.93491,8.28649 -1.23178,3.13542 -0.78386,9.63023 1.00782,4.59116 3.58334,8.95836 l 6.0469,2.91147 q 5.82293,-1.79167 10.97399,-4.81512 5.26303,-3.13542 12.42972,-1.67969 v 1.79167 q -3.58334,2.46355 -7.95054,4.25522 -4.25522,1.79167 -8.62242,2.91147 z m 51.17463,-0.78386 q -3.91928,-0.89583 -6.83075,-3.69532 -4.70314,-6.71877 -3.58334,-15.67713 0.67187,-4.81512 2.68751,-9.40628 2.01563,-4.70314 5.15105,-8.51044 l 4.70314,-4.03126 4.70314,-1.90365 h 15.11723 l 4.59116,2.23959 v 0.89583 q 3.2474,-0.33593 5.03908,2.12761 4.70314,7.05471 3.69532,17.24485 -1.11979,6.83074 -5.487,12.09378 l -1.00781,0.5599 -0.33594,1.11979 -2.23959,1.1198 -0.67188,1.23177 q -4.70313,3.02345 -9.74221,4.59116 z m 13.32556,-4.59116 q 7.16669,-4.03126 10.41409,-11.86982 2.12761,-5.15106 1.45574,-11.75785 -0.78386,-4.81512 -4.03127,-8.39846 -3.91928,-1.67969 -7.50262,-3.91928 l -3.91928,2.01563 -0.44792,1.34375 q -3.91928,3.47136 -6.38283,8.06252 -3.58335,7.50263 -3.24741,16.46099 1.00782,4.3672 3.91928,7.6146 2.12761,2.35157 5.03908,2.68751 z m 81.85701,7.16669 v -2.46355 q -1.11979,-5.93491 -1.79167,-15.00525 -0.67188,-9.18232 -2.12761,-17.80474 h -0.78386 q -6.04689,7.16669 -9.51825,15.45317 -3.35939,8.28648 -4.81512,17.24484 h -10.07816 v -3.2474 q 1.1198,-7.50263 2.35157,-15.22921 1.23178,-7.83857 1.23178,-15.67713 h -1.1198 l -1.79167,2.12761 h -0.67188 l -1.79167,3.2474 -1.11979,0.33594 q -4.25522,6.49481 -7.72659,13.6615 -3.35938,7.16669 -5.48699,14.78129 h -9.74222 l -0.33594,-2.12761 8.62242,-42.44023 h 9.63024 v 2.46355 l -1.79167,7.95055 h 0.78386 l 1.00781,-0.33594 0.44792,-1.1198 6.04689,-4.70314 12.98962,-0.33593 0.67188,0.33593 q 1.79167,2.57553 1.45573,5.82294 h 0.67188 l 5.03908,-4.03126 12.65368,-0.33594 2.79949,3.58334 q 1.79167,10.07816 2.46355,20.38027 0.78385,10.19013 1.90365,17.13286 z m 95.63047,-2.79949 v -5.03907 l -0.44792,-5.487 4.03126,-54.198073 h -2.91146 q -5.71096,0.671876 -11.86983,1.231774 -6.04689,0.559897 -12.20576,0.223959 v -1.791672 l 45.68763,-4.031262 h 16.9089 v 1.791672 L 458.429,84.830222 q -0.33594,16.572968 -2.01563,32.921968 -1.56771,16.34901 -1.56771,32.92197 z m 56.99758,0.22396 q -3.91928,-0.89583 -6.83075,-3.69532 -4.70313,-6.71877 -3.58334,-15.67713 0.67188,-4.81512 2.68751,-9.40628 2.01563,-4.70314 5.15105,-8.51044 l 4.70314,-4.03126 4.70314,-1.90365 h 15.11723 l 4.59116,2.23959 v 0.89583 q 3.24741,-0.33593 5.03908,2.12761 4.70314,7.05471 3.69532,17.24485 -1.11979,6.83074 -5.48699,12.09378 l -1.00782,0.5599 -0.33594,1.11979 -2.23959,1.1198 -0.67187,1.23177 q -4.70314,3.02345 -9.74222,4.59116 z m 13.32556,-4.59116 q 7.16669,-4.03126 10.4141,-11.86982 2.12761,-5.15106 1.45573,-11.75785 -0.78386,-4.81512 -4.03126,-8.39846 -3.91929,-1.67969 -7.50263,-3.91928 l -3.91928,2.01563 -0.44792,1.34375 q -3.91928,3.47136 -6.38283,8.06252 -3.58334,7.50263 -3.24741,16.46099 1.00782,4.3672 3.91929,7.6146 2.12761,2.35157 5.03907,2.68751 z m 86.00027,6.0469 v -6.15888 q 1.00781,-17.24484 3.91928,-34.15374 2.91147,-16.908905 7.16669,-33.36989 h 9.74221 v 1.791671 q -4.3672,17.580781 -7.39064,35.385519 -3.02345,17.80474 -3.47137,36.50532 z m 60.35694,-2.91147 v -0.33594 q -1.79167,-7.16669 -2.57552,-14.55733 -0.67188,-7.39065 -0.33594,-15.34119 l 1.45573,-13.21358 h -0.67188 l -0.44791,0.67187 -7.50263,6.15887 q -4.3672,3.91929 -9.96617,4.47918 -5.487,0.5599 -11.64587,0.11198 -2.79949,-1.34375 -4.25522,-4.59116 -1.79167,-5.82293 -2.91147,-11.75784 -1.00781,-5.934915 -1.79167,-11.981808 l 0.33594,-0.783856 h 9.74221 q 0.67188,6.49481 1.90365,12.989624 1.34376,6.49481 3.80731,12.20576 h 1.11979 l 11.19795,-8.95836 4.25522,-3.58334 h 0.67188 l 0.78386,-1.455735 1.00781,-0.335938 0.44792,-1.119795 7.16669,-7.166688 h 0.67187 l 1.79168,-4.3672 q 5.48699,-1.007815 11.53388,-0.671877 v 1.791672 l -0.33594,1.119795 -3.2474,3.583344 q -2.46355,8.958362 -3.91928,18.700572 -1.45574,9.63024 -1.1198,19.70839 l 2.57553,18.70058 z m 21.94797,16.01307 v -1.79168 q 5.37501,-3.02344 13.6615,-13.32556 l 2.46354,-3.58334 -2.46354,-0.67188 q -5.03908,-6.49481 -6.83075,-12.09378 -1.79168,-5.59898 -2.46355,-13.88546 l -0.89584,-11.42191 0.33594,-1.45573 h 10.07815 v 1.45573 l 0.11198,6.0469 q 0.33594,7.6146 1.56772,12.98962 1.34375,5.37501 4.92709,11.86982 l 1.00782,0.33594 q 5.37502,-8.62242 9.07034,-15.78911 3.69532,-7.16668 6.49481,-16.79692 h 10.07815 v 1.79167 q -3.91928,11.75785 -8.84638,20.94017 -4.92709,9.18231 -12.42972,19.59641 -3.2474,4.59116 -6.49481,8.1745 -3.13543,3.8073 -8.39846,7.72659 z M 819.45091,151.0101 q -6.83075,-0.33594 -12.98962,-2.35157 -6.04689,-2.01563 -11.86983,-4.81512 l -0.33594,-2.23959 h 9.74222 q 5.37501,2.91147 11.08597,4.70314 5.82293,1.79167 12.20576,2.46355 6.15888,-1.00781 11.19795,-5.37501 3.58335,-3.91929 3.91928,-9.2943 -1.45573,-6.83075 -7.16668,-12.20577 l -1.1198,-1.45573 q -8.1745,-5.71095 -17.80474,-8.39846 -9.51825,-2.79949 -18.47661,-7.39065 -2.46355,-3.2474 -1.79168,-7.614604 l 3.24741,-5.710954 1.1198,-0.335938 2.12761,-2.911467 2.46354,-2.12761 q 5.82294,-4.031262 12.20577,-6.71877 6.49481,-2.687508 13.77348,-3.359385 h 14.66931 l 5.03908,1.455734 1.11979,1.007815 v 2.23959 h -9.74221 q -2.12761,-2.911467 -6.0469,-2.23959 -5.48699,1.119795 -10.52607,3.471364 -5.03908,2.35157 -9.96617,5.151057 l -0.78386,1.119795 q -5.37502,3.583344 -8.28648,9.294298 l -0.33594,2.911465 1.11979,2.12761 q 9.2943,5.03908 19.48444,7.95055 10.30211,2.91146 18.92453,10.07815 l 1.79167,1.79167 q 5.82294,6.49481 4.70314,16.12505 -1.11979,3.69532 -3.58334,6.83075 l -2.57553,2.23959 q -5.37502,3.2474 -11.86983,3.58334 z m 49.38295,1.00782 v -1.45574 l -0.33594,-10.41409 2.12761,-26.87508 h -12.5417 v -1.79167 l 12.5417,-1.11979 q 1.1198,-5.37502 1.34376,-12.541707 0.33593,-7.278667 1.11979,-12.653683 h 9.74222 v 3.247405 l -1.45574,20.828185 h 11.19795 v 1.79167 l -11.53389,1.1198 q -1.00781,9.74221 -1.90365,19.82037 -0.89583,9.96617 -0.55989,20.04433 z m 31.24227,-0.5599 q -2.12761,-1.00782 -3.2474,-3.13543 -1.79167,-6.15887 -1.00782,-13.32556 0.67188,-7.6146 2.01563,-13.66149 1.45574,-6.15888 4.03127,-12.98963 h 0.67187 v -0.67187 h 9.74222 v 1.79167 q -3.58334,8.1745 -5.03908,16.01307 -1.34375,7.72658 -1.34375,17.35682 l 1.45573,4.3672 h 1.34376 l 5.37501,-4.3672 2.57553,-1.34376 0.33594,-1.11979 2.12761,-2.12761 h 0.78385 l 1.00782,-2.23959 q 3.24741,-3.13543 5.93491,-6.94273 2.79949,-3.8073 5.26304,-7.72658 l 5.15106,-12.20577 h 9.74221 l 0.33594,1.79167 q -2.12761,7.16669 -2.57553,14.2214 -0.44792,6.94273 -0.44792,14.89327 1.1198,5.71096 2.12761,11.08597 h -9.63023 q -2.91147,-7.50263 -2.57553,-16.12505 H 933.558 l -1.11979,1.45574 h -0.67188 l -1.11979,2.12761 -2.12761,2.12761 h -0.78386 l -0.67188,1.45573 -1.11979,0.33594 -0.33594,1.11979 -1.45573,1.45574 -4.59116,2.79949 v 0.78385 q -4.03127,2.79949 -9.2943,2.79949 -5.15106,0 -10.19014,0 z m 62.2606,0.22396 q -3.24741,-0.67188 -6.15887,-2.46355 -3.58335,-5.37502 -2.46355,-12.65368 1.79167,-8.62242 7.50262,-15.78911 l 1.79167,-1.79167 h 0.78386 l 0.67188,-1.45574 1.45573,-1.45573 q 4.70314,-3.91928 10.52607,-4.47918 5.93492,-0.5599 12.42973,-0.11198 l 1.79167,0.33594 4.03126,-34.489684 h 9.9662 v 1.791672 l -7.16671,61.476742 h 0.78385 v 1.45573 q -1.79167,3.91928 -1.79167,8.62242 h -9.74221 v -1.45573 h -1.1198 q -3.91928,1.79167 -8.62242,2.46355 z m 15.11723,-4.70314 q 4.9271,-2.12761 9.63024,-5.71095 l 2.12761,-20.82819 h -2.12761 l -1.79168,-3.91928 q -1.79167,-1.79167 -4.25522,-1.79167 l -4.70314,2.46354 v 0.67188 q -3.91928,2.91147 -6.49481,6.83075 l -1.45573,1.45573 q -4.25522,6.83075 -5.03908,15.11724 0.44792,3.58334 3.24741,6.49481 1.79167,1.45573 4.70314,1.45573 z m 38.52094,4.70314 v -10.75003 q 0.6719,-8.28649 1.6797,-16.12505 1.1198,-7.95054 2.5755,-15.90109 h 9.7422 v 3.24741 q -1.7916,9.2943 -2.9114,19.37245 -1.0078,10.07815 -1.4558,20.15631 z m 8.2865,-59.125173 v -0.335939 l -2.5755,-2.575528 v -0.671877 l -1.4558,-0.671877 -0.3359,-1.119795 -2.1276,-1.119795 -0.336,-2.12761 h 9.9662 l 4.0313,3.583343 v 0.783857 l 1.0078,0.335938 1.1198,2.127611 h 0.6719 v 1.455733 z m 27.5469,58.341313 q -3.9193,-0.89583 -6.8307,-3.69532 -4.7032,-6.71877 -3.5834,-15.67713 0.6719,-4.81512 2.6875,-9.40628 2.0157,-4.70314 5.1511,-8.51044 l 4.7031,-4.03126 4.7032,-1.90365 h 15.1172 l 4.5911,2.23959 v 0.89583 q 3.2475,-0.33593 5.0391,2.12761 4.7032,7.05471 3.6953,17.24485 -1.1197,6.83074 -5.4869,12.09378 l -1.0079,0.5599 -0.3359,1.11979 -2.2396,1.1198 -0.6719,1.23177 q -4.7031,3.02345 -9.7422,4.59116 z m 13.3256,-4.59116 q 7.1667,-4.03126 10.4141,-11.86982 2.1276,-5.15106 1.4557,-11.75785 -0.7839,-4.81512 -4.0313,-8.39846 -3.9192,-1.67969 -7.5026,-3.91928 l -3.9193,2.01563 -0.4479,1.34375 q -3.9193,3.47136 -6.3828,8.06252 -3.5834,7.50263 -3.2474,16.46099 1.0078,4.3672 3.9193,7.6146 2.1276,2.35157 5.039,2.68751 z"
       id="text1"
       transform="matrix(0.26458333,0,0,0.26458333,2.886609,-16.629314)"
       aria-label="Welcom To My Studio" />
  </g>
</svg>
