<?xml version="1.0" encoding="UTF-8" standalone="no"?>
<!-- Created with Inkscape (http://www.inkscape.org/) -->

<svg
   width="464.05771mm"
   height="30.103588mm"
   viewBox="0 0 464.05771 30.103588"
   version="1.1"
   id="svg1"
   xmlns="http://www.w3.org/2000/svg"
   xmlns:svg="http://www.w3.org/2000/svg">
  <defs
     id="defs7" />
  <g
     id="layer1"
     transform="translate(-11.786733,2.6942161)">
    <g
       aria-label="Architecture Design / Implementation"
       transform="matrix(0.26458333,0,0,0.26458333,6.4289203,-8.1391558)"
       id="text1"
       style="font-size:114px;font-family:'Californian FB';-inkscape-font-specification:'Californian FB';white-space:pre;fill:#ffffff">
      <path
         d="m 93.782227,104.74336 q 0,0.55664 -0.333985,0.55664 H 67.787109 q -0.55664,0 -0.55664,-0.66797 v -1.50293 q 0,-0.77929 0.55664,-0.77929 h 7.625977 q 0.890625,0 0.723633,-1.00196 Q 75.635742,99.566605 72.295898,89.76973 68.956055,79.917191 68.62207,79.193558 68.176758,78.080276 67.453125,78.080276 H 40.567383 q -0.500977,0.111329 -0.834961,0.667969 -0.779297,1.50293 -2.671875,7.069336 -1.892578,5.510742 -2.337891,7.514649 -0.890625,4.453125 -0.890625,5.34375 0,3.67383 0.890625,3.67383 h 8.460938 q 0.667968,0 0.667968,0.77929 v 1.61426 q 0,0.55664 -0.55664,0.55664 H 20.806641 Q 20.25,105.3 20.25,104.74336 v -1.83691 q 0,-0.55664 0.445312,-0.55664 h 4.78711 q 1.224609,0 3.28418,-5.232424 2.115234,-5.232422 12.46875,-30.225586 6.624023,-15.75293 16.086914,-38.185547 0.612304,-1.725586 1.224609,-1.948242 1.558594,-0.445313 4.007812,-1.391602 0.389649,-0.166992 0.890625,0.612305 0.500977,0.723633 -0.445312,1.669922 -1.669922,1.725586 -1.669922,3.339844 -0.05566,1.669921 0.779297,4.174804 3.005859,8.34961 10.854492,31.283203 7.848633,22.87793 10.910156,29.613282 2.950196,6.290041 4.230469,6.290041 h 5.232422 q 0.445313,0 0.445313,0.77929 z M 66.228516,73.014847 Q 63.946289,66.390823 61.330078,58.486526 58.713867,50.58223 55.930664,42.009964 q -0.166992,-0.723633 -0.445312,-0.890625 -0.222657,0.222656 -0.556641,0.890625 -6.958008,17.033203 -10.019531,24.158203 -3.00586,7.125 -3.00586,7.347656 0,0.333985 0.500977,0.333985 h 23.545898 q 0.556641,0 0.278321,-0.834961 z"
         id="path9" />
      <path
         d="m 134.80664,59.377151 q -0.6123,3.618165 -1.72559,6.958008 -0.27832,0.890625 -0.77929,0.890625 -0.61231,0 -1.00196,-0.55664 -1.44726,-2.059571 -2.56054,-2.838868 -2.1709,-1.725585 -5.56641,-1.725585 -6.29004,0 -9.46289,2.727539 -0.55664,0.500976 -0.55664,1.502929 0,0.333985 -0.0557,12.858399 -0.0557,12.524414 -0.0557,13.248047 0,9.908205 1.83692,9.908205 h 10.91015 q 0.72364,0 0.72364,0.77929 v 1.61426 q 0,0.55664 -0.50098,0.55664 H 97.511719 q -0.779297,0 -0.779297,-0.55664 v -1.61426 q 0,-0.77929 0.667969,-0.77929 h 6.735349 q 1.05762,0 1.05762,-1.05762 V 64.720901 q 0,-7.625976 -1.83691,-7.625976 h -6.846684 q -0.556641,0 -0.556641,-0.612305 v -1.78125 q 0,-0.612304 0.556641,-0.612304 h 7.625974 q 4.00781,0 5.1211,-0.333985 3.06152,-0.890625 3.33984,-0.890625 0.7793,0 0.7793,1.50293 0,0.389648 -0.11133,3.339844 -0.11133,2.894531 -0.11133,3.228515 0,1.614258 0.66797,0.946289 2.56055,-2.226562 5.84473,-4.898437 4.06347,-3.00586 7.95996,-3.00586 4.50879,0 6.958,3.785157 0.50098,0.779297 0.22266,1.614257 z"
         id="path11" />
      <path
         d="m 183.56836,96.171097 q 0,0.834961 -2.72754,2.950195 -8.96191,6.958008 -19.25977,6.958008 -6.12304,0 -9.68554,-1.89258 -5.34375,-2.89453 -9.24024,-9.852537 -3.17285,-5.622071 -3.17285,-14.25 0,-5.789063 1.33594,-10.798828 1.78125,-6.56836 6.84668,-10.965821 5.51074,-4.787109 15.25195,-4.787109 8.6836,0 14.63965,5.733398 3.17285,3.061524 3.17285,5.566407 0,2.616211 -2.05957,2.616211 -2.7832,0 -5.67773,-2.838868 -2.61621,-2.616211 -3.5625,-5.844726 -0.38965,-1.335938 -2.56055,-1.669922 -2.11523,-0.333984 -4.28613,-0.333984 -2.78321,0 -4.56446,0.333984 -4.62011,0.890625 -7.29199,3.84082 -4.45312,4.954102 -4.45312,15.530274 0,10.798828 7.18066,18.36914 3.22852,3.339844 7.9043,4.341797 2.39355,0.556641 7.51465,0.556641 6.90234,0 11.74511,-3.451172 0.66797,-0.445313 1.61426,-1.113281 0.22266,-0.111328 0.66797,-0.111328 0.66797,0.612304 0.66797,1.113281 z"
         id="path13" />
      <path
         d="m 245.80078,104.85469 q 0,0.44531 -0.55664,0.44531 h -22.93359 q -0.55664,0 -0.55664,-0.55664 v -1.61426 q 0,-0.77929 0.55664,-0.77929 h 5.12109 q 0.7793,0 0.94629,-1.3916 0.66797,-5.455082 0.66797,-13.192387 0,-4.675781 -0.11133,-9.407226 -0.11133,-4.731446 -0.11133,-4.397461 0,-7.180664 -1.94824,-10.019531 -2.05957,-3.117188 -8.40527,-3.117188 -8.12696,0 -13.24805,3.451172 -0.66797,0.445312 -0.66797,1.447266 0,0.166992 0.0557,11.188476 0.0557,10.96582 0.0557,11.633789 0,13.91602 2.28223,13.91602 h 7.62597 q 0.44531,0 0.44531,0.44531 v 1.94824 q 0,0.44531 -0.44531,0.44531 h -25.32715 q -0.55664,0 -0.55664,-0.44531 v -1.83691 q 0,-0.66797 0.66797,-0.66797 h 6.73535 q 0.83496,0 0.83496,-0.94629 V 39.727737 q 0,-13.02539 -1.72558,-13.02539 h -7.18067 q -0.27832,0 -0.44531,-0.05566 -0.11133,-0.111328 -0.11133,-0.612305 v -1.725586 q 0,-0.27832 0.0557,-0.389648 0.11133,-0.166993 0.6123,-0.166993 h 2.39356 q 2.7832,0 9.46289,-1.447265 4.28613,-1.725586 4.56445,-1.725586 0.89063,0 0.89063,1.836914 0,-0.500977 -0.50098,16.198242 -0.50098,16.699219 -0.50098,21.875977 0,1.502929 0.66797,1.057617 1.22461,-0.779297 3.89649,-2.671875 1.44726,-1.057617 4.1748,-2.727539 5.51074,-2.616211 10.29785,-2.616211 4.9541,0 8.73926,3.5625 4.3418,4.007812 4.3418,12.19043 0,0.445312 -0.22266,10.409179 -0.22266,9.963867 -0.22266,10.6875 0,11.967776 1.50293,11.967776 h 7.62598 q 0.55664,0 0.55664,0.55664 z"
         id="path15" />
      <path
         d="m 266.6748,34.272659 q 0,2.950196 -2.67187,5.232422 -2.28223,1.948242 -4.28613,1.948242 -3.67383,0 -3.67383,-3.618164 0,-2.170898 1.83691,-4.397461 2.22657,-2.671875 5.45508,-2.671875 3.33984,0 3.33984,3.506836 z m 9.18457,70.470701 q 0,0.55664 -0.66796,0.55664 h -26.44043 q -0.55664,0 -0.55664,-0.66797 v -1.72558 q 0,-0.7793 0.44531,-0.7793 h 8.07129 q 1.05761,0 1.05761,-1.16894 0,-0.33399 0.0557,-13.470707 0.0557,-13.192383 0.0557,-14.583984 0,-8.683594 -0.16699,-10.40918 -0.6123,-5.176758 -3.00586,-5.176758 h -5.51074 q -0.89063,0 -0.89063,-0.55664 v -1.948243 q 0,-0.723632 0.55664,-0.723632 h 3.28418 q 5.17676,0 9.96387,-0.445313 3.5625,-0.333984 3.28418,-0.333984 1.28027,0 1.28027,1.725586 0,0.166992 -0.44531,16.58789 -0.38965,16.365235 -0.38965,17.144531 0,13.359374 2.72754,13.359374 h 6.73535 q 0.55664,0 0.55664,0.55664 z"
         id="path17" />
      <path
         d="m 315.65918,98.564651 q 0,0.834961 -0.44531,1.280274 -2.28223,1.836915 -5.95606,3.506835 -6.29004,2.9502 -11.68945,2.9502 -11.63379,0 -11.63379,-11.856449 0,-0.723633 0.22266,-12.357422 0.22265,-11.633789 0.22265,-12.246094 0,-0.723633 -0.11133,-4.787109 -0.11132,-4.119141 -0.11132,-4.341797 0,-1.168945 -1.05762,-1.669922 -0.83496,-0.445312 -4.3418,-1.948242 -0.72363,-0.333984 -0.66797,-1.280274 0,-0.723632 0.83496,-1.335937 5.56641,-4.731445 11.85645,-9.963867 0.83496,-0.556641 1.44727,-0.556641 0.89062,0 0.55664,1.614258 -0.66797,3.618164 -0.66797,7.40332 0,1.836914 0.55664,1.836914 0.50097,0 9.62988,-0.27832 9.12891,-0.333984 9.40723,-0.333984 1.16894,0 0.83496,1.168945 0,1.113281 -0.83496,3.172852 -0.27832,0.83496 -1.00196,0.83496 -0.50097,0 -9.1289,-0.05566 -8.57227,-0.05566 -8.90625,-0.05566 -0.66797,0 -0.66797,0.556641 v 30.893555 q 0,4.842773 1.3916,7.069336 1.50293,2.504885 8.40527,2.504885 3.78516,0 8.90625,-1.725589 2.22657,-1.001953 2.39356,-1.001953 0.55664,0 0.55664,1.001953 z"
         id="path19" />
      <path
         d="m 364.69922,97.785355 q 0,0.111328 -0.11133,0.333984 -1.72559,1.725586 -2.89453,2.560551 -2.05957,1.44726 -5.56641,3.00586 -5.62207,2.50488 -12.19043,2.50488 -9.79687,0 -15.58593,-5.78906 -7.06934,-7.06934 -7.06934,-17.2002 0,-7.236328 0.7793,-10.631836 1.94824,-8.293945 6.84668,-13.081054 5.67773,-5.622071 14.02734,-5.622071 4.00781,0 6.56836,1.280274 2.00391,0.946289 6.40137,4.11914 5.23242,3.729493 7.06933,7.737305 0.44532,1.001953 0.44532,1.725586 0,0.612305 -1.00196,1.001953 -2.11523,0.834961 -12.41308,2.727539 -11.74512,2.170899 -15.64161,2.170899 -0.33398,0 -2.67187,0.05566 -2.28223,0.05566 -2.67188,0.05566 -0.66796,0 -0.66796,2.616211 0,11.522461 8.40527,18.814453 4.50879,3.896483 14.80664,3.896483 5.28809,0 8.68359,-1.168944 2.39356,-0.779297 3.28418,-1.669922 0.167,-0.111328 0.50098,-0.27832 0.27832,0 0.44531,0.389648 0.11133,0.166992 0.22266,0.445313 z M 354.29004,68.005081 q 0,-0.445312 -0.55664,-1.447265 -2.39356,-4.230469 -6.01172,-7.013672 -3.61816,-2.783203 -8.34961,-2.783203 -3.50684,0 -6.73535,4.286132 -1.16895,1.614258 -2.50488,4.954102 -1.44727,3.618164 -1.44727,5.566406 0,0.890625 0.66797,0.890625 -0.55664,0 9.57422,-0.779297 9.62988,-0.779297 14.47265,-2.616211 0.89063,-0.389648 0.89063,-1.057617 z"
         id="path21" />
      <path
         d="m 414.18457,96.171097 q 0,0.834961 -2.72754,2.950195 -8.96191,6.958008 -19.25976,6.958008 -6.12305,0 -9.68555,-1.89258 -5.34375,-2.89453 -9.24024,-9.852537 -3.17285,-5.622071 -3.17285,-14.25 0,-5.789063 1.33594,-10.798828 1.78125,-6.56836 6.84668,-10.965821 5.51074,-4.787109 15.25195,-4.787109 8.6836,0 14.63965,5.733398 3.17285,3.061524 3.17285,5.566407 0,2.616211 -2.05957,2.616211 -2.7832,0 -5.67773,-2.838868 -2.61621,-2.616211 -3.5625,-5.844726 -0.38965,-1.335938 -2.56055,-1.669922 -2.11523,-0.333984 -4.28613,-0.333984 -2.7832,0 -4.56445,0.333984 -4.62012,0.890625 -7.292,3.84082 -4.45312,4.954102 -4.45312,15.530274 0,10.798828 7.18066,18.36914 3.22852,3.339844 7.9043,4.341797 2.39355,0.556641 7.51465,0.556641 6.90234,0 11.74511,-3.451172 0.66797,-0.445313 1.61426,-1.113281 0.22266,-0.111328 0.66797,-0.111328 0.66797,0.612304 0.66797,1.113281 z"
         id="path23" />
      <path
         d="m 455.09766,98.564651 q 0,0.834961 -0.44532,1.280274 -2.28222,1.836915 -5.95605,3.506835 -6.29004,2.9502 -11.68945,2.9502 -11.63379,0 -11.63379,-11.856449 0,-0.723633 0.22265,-12.357422 0.22266,-11.633789 0.22266,-12.246094 0,-0.723633 -0.11133,-4.787109 -0.11133,-4.119141 -0.11133,-4.341797 0,-1.168945 -1.05761,-1.669922 -0.83497,-0.445312 -4.3418,-1.948242 -0.72363,-0.333984 -0.66797,-1.280274 0,-0.723632 0.83496,-1.335937 5.56641,-4.731445 11.85645,-9.963867 0.83496,-0.556641 1.44726,-0.556641 0.89063,0 0.55664,1.614258 -0.66797,3.618164 -0.66797,7.40332 0,1.836914 0.55664,1.836914 0.50098,0 9.62989,-0.27832 9.1289,-0.333984 9.40722,-0.333984 1.16895,0 0.83496,1.168945 0,1.113281 -0.83496,3.172852 -0.27832,0.83496 -1.00195,0.83496 -0.50098,0 -9.12891,-0.05566 -8.57226,-0.05566 -8.90625,-0.05566 -0.66796,0 -0.66796,0.556641 v 30.893555 q 0,4.842773 1.3916,7.069336 1.50293,2.504885 8.40527,2.504885 3.78516,0 8.90625,-1.725589 2.22656,-1.001953 2.39356,-1.001953 0.55664,0 0.55664,1.001953 z"
         id="path25" />
      <path
         d="m 513.04395,103.01778 q 0,0.50097 -0.50098,0.77929 -1.3916,0.55664 -3.50684,1.50293 -0.55664,0.33399 -1.72558,1.11328 -0.33399,0.38965 -1.00196,0.38965 0.11133,0 -1.50293,-0.83496 -2.95019,-1.83691 -4.78711,-8.293944 -0.27832,-0.946289 -1.11328,-0.222656 -1.83691,1.50293 -10.29785,6.45703 -3.45117,2.05957 -11.52246,2.05957 -4.56445,0 -7.40332,-3.95215 -2.61621,-3.729489 -2.61621,-8.68359 V 71.344925 q 0,-14.027344 -2.28223,-14.027344 h -6.62402 q -0.7793,0 -0.7793,-0.55664 v -1.836915 q 0,-0.55664 0.44532,-0.55664 h 6.84667 q 0.27833,0 2.72754,-0.166992 2.50489,-0.222657 3.00586,-0.222657 4.06348,-0.445312 3.61817,-0.445312 0.94629,0 0.94629,1.50293 0,0.111328 -0.167,17.033203 -0.11132,16.866211 -0.11132,18.313476 0,5.232422 2.33789,7.236328 2.0039,1.78125 6.79101,1.78125 4.78711,0 15.08496,-4.564453 0.55664,0 0.55664,-0.946289 0,0 0,-28.611328 0,-7.737305 -2.28222,-7.737305 h -6.62403 q -0.66796,0 -0.66796,-0.55664 v -1.836914 q 0,-0.556641 0.44531,-0.556641 h 7.18066 q 3.39551,0 5.78906,-0.389648 3.22852,-0.445313 3.33985,-0.445313 0.77929,0 0.77929,1.614258 0,0.222656 -0.11132,17.53418 -0.11133,17.255859 -0.11133,18.146484 0,7.848633 5.12109,11.077147 0.72364,0.38965 0.72364,0.89063 z"
         id="path27" />
      <path
         d="m 557.79785,59.377151 q -0.6123,3.618165 -1.72558,6.958008 -0.27832,0.890625 -0.7793,0.890625 -0.61231,0 -1.00195,-0.55664 -1.44727,-2.059571 -2.56055,-2.838868 -2.1709,-1.725585 -5.56641,-1.725585 -6.29004,0 -9.46289,2.727539 -0.55664,0.500976 -0.55664,1.502929 0,0.333985 -0.0557,12.858399 -0.0557,12.524414 -0.0557,13.248047 0,9.908205 1.83692,9.908205 h 10.91015 q 0.72364,0 0.72364,0.77929 v 1.61426 q 0,0.55664 -0.50098,0.55664 h -28.5 q -0.7793,0 -0.7793,-0.55664 v -1.61426 q 0,-0.77929 0.66797,-0.77929 h 6.73535 q 1.05762,0 1.05762,-1.05762 V 64.720901 q 0,-7.625976 -1.83691,-7.625976 h -6.84668 q -0.55664,0 -0.55664,-0.612305 v -1.78125 q 0,-0.612304 0.55664,-0.612304 h 7.62597 q 4.00782,0 5.1211,-0.333985 3.06152,-0.890625 3.33984,-0.890625 0.7793,0 0.7793,1.50293 0,0.389648 -0.11133,3.339844 -0.11133,2.894531 -0.11133,3.228515 0,1.614258 0.66797,0.946289 2.56055,-2.226562 5.84473,-4.898437 4.06347,-3.00586 7.95996,-3.00586 4.50879,0 6.95801,3.785157 0.50097,0.779297 0.22265,1.614257 z"
         id="path29" />
      <path
         d="m 605.8916,97.785355 q 0,0.111328 -0.11133,0.333984 -1.72558,1.725586 -2.89453,2.560551 -2.05957,1.44726 -5.5664,3.00586 -5.62207,2.50488 -12.19043,2.50488 -9.79688,0 -15.58594,-5.78906 -7.06934,-7.06934 -7.06934,-17.2002 0,-7.236328 0.7793,-10.631836 1.94824,-8.293945 6.84668,-13.081054 5.67773,-5.622071 14.02734,-5.622071 4.00782,0 6.56836,1.280274 2.00391,0.946289 6.40137,4.11914 5.23242,3.729493 7.06934,7.737305 0.44531,1.001953 0.44531,1.725586 0,0.612305 -1.00196,1.001953 -2.11523,0.834961 -12.41308,2.727539 -11.74512,2.170899 -15.6416,2.170899 -0.33399,0 -2.67188,0.05566 -2.28222,0.05566 -2.67187,0.05566 -0.66797,0 -0.66797,2.616211 0,11.522461 8.40527,18.814453 4.50879,3.896483 14.80664,3.896483 5.28809,0 8.6836,-1.168944 2.39355,-0.779297 3.28418,-1.669922 0.16699,-0.111328 0.50097,-0.27832 0.27832,0 0.44532,0.389648 0.11132,0.166992 0.22265,0.445313 z M 595.48242,68.005081 q 0,-0.445312 -0.55664,-1.447265 -2.39355,-4.230469 -6.01172,-7.013672 -3.61816,-2.783203 -8.34961,-2.783203 -3.50683,0 -6.73535,4.286132 -1.16894,1.614258 -2.50488,4.954102 -1.44727,3.618164 -1.44727,5.566406 0,0.890625 0.66797,0.890625 -0.55664,0 9.57422,-0.779297 9.62988,-0.779297 14.47266,-2.616211 0.89062,-0.389648 0.89062,-1.057617 z"
         id="path31" />
      <path
         d="m 705.41895,66.8918 q 0,23.100586 -15.41895,33.39844 -5.56641,3.72949 -12.74707,4.89843 -4.23047,0.66797 -12.74707,0.66797 -3.95215,0 -10.29785,-0.27832 Q 647.91797,105.3 643.74316,105.3 h -6.17871 q -0.55664,0 -0.55664,-0.55664 0,-0.16699 -0.0557,-0.77929 -0.0557,-0.66797 -0.0557,-1.05762 0,-0.55664 0.66797,-0.55664 h 7.79297 q 0.89063,0 0.89063,-1.72559 0,-0.834959 -0.167,-14.639647 -0.16699,-13.860351 -0.16699,-15.084961 0,0 0.0557,-13.693359 0.11132,-12.134766 0.0557,-13.359375 -0.33398,-11.299805 -2.05957,-11.299805 h -7.84863 q -0.61231,0 -0.61231,-0.55664 v -1.836914 q 0,-0.556641 0.72364,-0.556641 h 34.40039 q 8.57226,0 13.58203,2.170898 3.33984,1.447266 4.89843,2.393555 3.50684,2.05957 6.84668,5.34375 9.4629,9.462891 9.4629,27.386719 z m -7.73731,7.514648 q 0,-16.754882 -8.68359,-27.609375 -6.12305,-7.625976 -13.47071,-10.576172 -7.62597,-3.061523 -15.02929,-3.061523 -3.11719,0 -4.3418,0.27832 -1.22461,0.278321 -1.22461,2.226563 0,0.834961 -0.0557,13.749023 -0.0557,12.914063 -0.0557,14.639649 v 22.543945 q 0,14.472652 1.78125,14.806642 4.39746,0.83496 14.97364,0.83496 11.68945,0 17.97949,-6.067383 8.12695,-7.737305 8.12695,-21.764649 z"
         id="path33" />
      <path
         d="m 756.85254,97.785355 q 0,0.111328 -0.11133,0.333984 -1.72559,1.725586 -2.89453,2.560551 -2.05957,1.44726 -5.56641,3.00586 -5.62207,2.50488 -12.19043,2.50488 -9.79687,0 -15.58593,-5.78906 -7.06934,-7.06934 -7.06934,-17.2002 0,-7.236328 0.7793,-10.631836 1.94824,-8.293945 6.84668,-13.081054 5.67773,-5.622071 14.02734,-5.622071 4.00781,0 6.56836,1.280274 2.00391,0.946289 6.40137,4.11914 5.23242,3.729493 7.06933,7.737305 0.44532,1.001953 0.44532,1.725586 0,0.612305 -1.00196,1.001953 -2.11523,0.834961 -12.41308,2.727539 -11.74512,2.170899 -15.64161,2.170899 -0.33398,0 -2.67187,0.05566 -2.28223,0.05566 -2.67188,0.05566 -0.66796,0 -0.66796,2.616211 0,11.522461 8.40527,18.814453 4.50879,3.896483 14.80664,3.896483 5.28809,0 8.68359,-1.168944 2.39356,-0.779297 3.28418,-1.669922 0.167,-0.111328 0.50098,-0.27832 0.27832,0 0.44531,0.389648 0.11133,0.166992 0.22266,0.445313 z M 746.44336,68.005081 q 0,-0.445312 -0.55664,-1.447265 -2.39356,-4.230469 -6.01172,-7.013672 -3.61816,-2.783203 -8.34961,-2.783203 -3.50684,0 -6.73535,4.286132 -1.16895,1.614258 -2.50488,4.954102 -1.44727,3.618164 -1.44727,5.566406 0,0.890625 0.66797,0.890625 -0.55664,0 9.57422,-0.779297 9.62988,-0.779297 14.47265,-2.616211 0.89063,-0.389648 0.89063,-1.057617 z"
         id="path35" />
      <path
         d="m 799.71387,90.938675 q 0,6.067383 -3.39551,10.130855 -4.23047,5.00977 -14.13867,5.00977 -10.57617,0 -17.92383,-5.78906 -0.7793,-0.612307 -0.7793,-2.393557 -0.22265,-2.282227 -0.22265,-9.796875 0,-1.057617 0.89062,-1.057617 0.94629,0 1.16895,0.83496 0,0.222657 0.44531,1.558594 0.44531,1.558594 0.55664,2.170899 1.3916,4.842773 5.23242,9.574216 1.05762,1.22461 1.83692,1.3916 2.67187,0.44532 8.68359,0.44532 5.95605,0 9.46289,-3.061527 2.72754,-2.393555 2.72754,-6.624023 0,-2.504883 -2.05957,-4.341797 -2.83887,-2.504883 -7.40332,-3.506836 -0.50098,-0.166992 -3.22852,-1.113281 -2.72754,-1.001954 -3.28418,-1.168946 -6.45703,-2.838867 -9.2959,-5.62207 -4.00781,-3.896484 -4.00781,-10.019531 0,-4.954102 3.50684,-8.683594 4.45312,-4.675781 12.91406,-4.675781 10.35352,0 15.36328,5.065429 0.44531,0.445313 0.44531,1.335938 v 8.015625 q 0,1.224609 -0.55664,1.224609 -0.66797,0 -1.00195,-0.667969 -2.11523,-4.620117 -4.67578,-10.019531 -0.50098,-0.946289 -1.28027,-1.057617 -2.44922,-0.667969 -7.62598,-0.667969 -4.89844,0 -7.95996,1.836914 -3.5625,2.059571 -3.5625,6.123047 0,6.56836 9.1289,9.240235 2.78321,0.834961 8.18262,2.616211 5.1211,1.725585 8.12695,4.453125 3.7295,3.451171 3.7295,9.240234 z"
         id="path37" />
      <path
         d="m 824.03906,34.272659 q 0,2.950196 -2.67187,5.232422 -2.28223,1.948242 -4.28614,1.948242 -3.67382,0 -3.67382,-3.618164 0,-2.170898 1.83691,-4.397461 2.22656,-2.671875 5.45508,-2.671875 3.33984,0 3.33984,3.506836 z m 9.18457,70.470701 q 0,0.55664 -0.66797,0.55664 h -26.44043 q -0.55664,0 -0.55664,-0.66797 v -1.72558 q 0,-0.7793 0.44532,-0.7793 h 8.07129 q 1.05761,0 1.05761,-1.16894 0,-0.33399 0.0557,-13.470707 0.0557,-13.192383 0.0557,-14.583984 0,-8.683594 -0.16699,-10.40918 -0.61231,-5.176758 -3.00586,-5.176758 h -5.51074 q -0.89063,0 -0.89063,-0.55664 v -1.948243 q 0,-0.723632 0.55664,-0.723632 h 3.28418 q 5.17676,0 9.96387,-0.445313 3.5625,-0.333984 3.28418,-0.333984 1.28027,0 1.28027,1.725586 0,0.166992 -0.44531,16.58789 -0.38965,16.365235 -0.38965,17.144531 0,13.359374 2.72754,13.359374 h 6.73535 q 0.55664,0 0.55664,0.55664 z"
         id="path39" />
      <path
         d="m 887.60742,115.26387 q 0,6.23438 -6.3457,12.02344 -7.79297,7.06933 -23.93555,7.06933 -11.02148,0 -16.64355,-4.56445 -4.67578,-3.78516 -4.67578,-8.73926 0,-5.45508 4.67578,-10.40918 1.50293,-1.66992 7.95996,-4.23047 1.55859,-0.94628 -0.11133,-1.16894 -3.61816,-0.94629 -4.67578,-1.50293 -2.72754,-1.50293 -2.72754,-4.564454 0,-3.117187 2.50488,-5.232422 2.50489,-1.78125 5.00977,-3.5625 0.72363,-0.612304 -0.66797,-1.391601 -2.22656,-1.168946 -4.89844,-3.729492 -4.3418,-4.174805 -4.3418,-12.246094 0,-8.238281 5.23243,-13.804688 5.28808,-5.566406 14.91797,-5.566406 5.67773,0 10.01953,0.834961 3.17285,0.556641 9.85254,0.556641 4.11914,0 5.90039,-0.834961 0.44531,-0.111328 1.11328,-0.500977 0.72363,-0.389648 0.83496,-0.389648 0.55664,0 0.55664,1.280273 0,2.560547 -1.94824,5.009766 -0.66797,0.667968 -2.83887,0.667968 -2.22656,0 -6.5127,-0.55664 -1.89257,-0.27832 -1.89257,0.333984 0,0.389649 0.44531,0.890625 4.06348,4.842774 4.06348,10.965821 0,7.848632 -5.84473,13.637695 -5.84473,5.733398 -14.75098,5.733398 -2.95019,0 -5.23242,-0.667968 -0.66797,-0.222657 -1.28027,0.222656 -1.3916,0.779297 -2.72754,1.502929 -1.72559,1.168946 -1.72559,2.671875 0,2.003907 1.28028,2.671875 0.72363,0.445313 3.28418,0.723633 3.84082,0.445313 7.18066,0.445313 18.20215,0 24.60351,5.844728 4.3418,3.95215 4.3418,10.57617 z M 870.40723,74.963089 q 0,-8.572266 -4.00782,-12.74707 -4.62011,-4.898438 -10.57617,-4.898438 -5.62207,0 -7.51465,2.838867 -2.39355,3.618164 -2.39355,9.240235 0,7.125 2.39355,11.633789 3.89649,7.291992 11.52246,7.291992 5.23243,0 7.73731,-3.172852 2.83887,-3.729492 2.83887,-10.186523 z m 10.96582,43.362301 q 0,-1.89257 -1.33594,-4.00781 -1.72559,-2.7832 -4.84277,-4.06348 -7.292,-2.95019 -16.86622,-2.95019 -8.68359,0 -12.63574,3.89648 -4.23047,4.11914 -4.23047,9.51856 0,4.56445 4.3418,7.34765 5.23242,3.45118 14.47266,3.45118 10.13086,0 15.47461,-4.23047 3.22851,-2.50489 4.28613,-4.06348 1.33594,-1.94824 1.33594,-4.89844 z"
         id="path41" />
      <path
         d="m 948.50391,104.63203 q 0,0.66797 -0.44532,0.66797 h -23.49023 q -0.55664,0 -0.55664,-0.44531 v -1.94824 q 0,-0.55664 0.55664,-0.55664 h 5.95605 q 0.72364,0 1.00196,-0.94629 0.77929,-5.844728 0.77929,-25.88379 0,-9.351563 -2.89453,-12.079102 -2.83886,-2.727539 -8.73926,-2.727539 -7.45898,0 -12.30175,3.339844 -0.7793,0.500976 -0.7793,1.447265 -0.33398,2.393555 -0.33398,25.215821 0,11.633791 1.72558,11.633791 h 7.62598 q 0.55664,0 0.55664,0.55664 v 1.94824 q 0,0.44531 -0.55664,0.44531 h -24.99317 q -0.27832,0 -0.44531,-0.11133 -0.11133,-0.11132 -0.11133,-0.55664 v -1.83691 q 0,-0.44531 0.55664,-0.44531 h 7.06934 q 0.83496,0 0.83496,-1.05762 0,-0.33398 0.16699,-17.756835 0.167,-17.478516 0.167,-18.369141 0,-8.293945 -1.72559,-8.293945 h -6.73535 q -0.66797,0 -0.66797,-0.723633 v -1.669922 q 0,-0.500977 0.44531,-0.500977 h 7.18067 q 0.6123,0 2.89453,-0.111328 2.33789,-0.111328 2.44922,-0.111328 0.55664,-0.05566 1.72558,-0.27832 1.16895,-0.27832 1.61426,-0.27832 0.7793,0 0.7793,1.280273 0,0.27832 -0.11133,2.894531 -0.11133,2.616211 -0.11133,3.00586 0,1.725586 0.66797,1.057617 4.78711,-3.896485 9.24023,-5.844727 4.23047,-1.836914 8.12696,-1.836914 5.95605,0 9.9082,3.896485 4.23047,4.11914 4.23047,15.363281 0,3.729492 -0.38965,12.635742 -0.33398,8.850586 -0.33398,8.683594 0,8.126957 1.16894,8.126957 h 7.62598 q 0.66797,0 0.66797,0.33398 z"
         id="path43" />
      <path
         d="m 1006.6729,23.696487 q 0.2226,0.222657 -0.334,2.003907 -1.67,5.121093 -13.80472,41.469726 -12.41309,37.07227 -14.02734,41.63672 -0.44532,1.28027 -1.16895,1.94824 -1.66992,0.22266 -2.39355,-1.00195 -0.50098,-0.55664 0.38964,-2.05957 13.19239,-41.247073 27.77642,-83.106448 0.4453,-1.224609 1.1689,-1.948242 1.5029,0 2.3936,1.057617 z"
         id="path45" />
      <path
         d="m 1064.8975,104.85469 q 0,0.44531 -0.334,0.44531 h -26.9971 q -0.501,0 -0.6123,-0.16699 -0.1113,-0.16699 -0.1113,-0.38965 v -1.72558 q 0,-0.50098 0.167,-0.55664 0.167,-0.11133 0.3896,-0.11133 h 7.5703 q 0.7793,0 0.7793,-1.61426 l -0.1113,-57.556641 q 0,-10.520508 -1.9482,-10.520508 h -7.0694 q -0.7793,0 -0.7793,-0.55664 v -1.948242 q 0,-0.445313 0.5567,-0.445313 h 26.997 q 0.501,0 0.501,0.445313 v 2.05957 q 0,0.445312 -0.6123,0.445312 h -7.8486 q -1.002,0 -1.002,1.168946 -0.1113,50.542969 -0.1113,52.21289 0,8.238282 0.056,9.407227 0.3896,6.902346 2.2265,6.902346 h 7.8486 q 0.4454,0 0.4454,0.44531 z"
         id="path47" />
      <path
         d="m 1156.4648,104.85469 q 0,0.44531 -0.6679,0.44531 h -22.711 q -0.5566,0 -0.5566,-0.55664 v -1.72558 q 0,-0.66797 0.5566,-0.66797 h 5.2325 q 0.8906,0 1.0576,-0.94629 0.5566,-3.005861 0.5566,-24.492189 0,-10.576172 -2.2822,-13.470703 -2.7275,-3.395508 -8.3496,-3.395508 -7.292,0 -11.6895,4.564453 -0.5009,0.612305 -0.5009,1.447266 v 24.547852 q 0,11.745119 1.6142,11.745119 h 6.624 q 0.4453,0 0.4453,0.55664 v 1.83691 q 0,0.55664 -0.4453,0.55664 h -21.7646 q -0.6123,0 -0.6123,-0.44531 v -1.94824 q 0,-0.55664 0.501,-0.55664 h 5.455 q 0.7793,0 0.7793,-1.05762 0,-0.33398 -0.056,-16.086914 -0.056,-15.752929 -0.056,-16.476562 0,-9.128906 -9.0176,-9.128906 -8.4052,0 -12.8584,4.453125 -0.6679,0.667968 -0.6679,1.447265 v 25.327149 q 0,11.633793 1.8925,11.633793 h 6.7354 q 0.6123,0 0.6123,0.44531 v 1.83691 q 0,0.55664 -0.501,0.55664 h -23.8242 q -0.4453,0 -0.5566,-0.16699 -0.1114,-0.16699 -0.1114,-0.38965 v -1.61426 q 0,-0.77929 0.668,-0.77929 h 6.624 q 1.0576,0 1.0576,-1.3916 0,-0.22266 -0.2783,-17.200199 -0.2226,-17.033203 -0.2226,-17.8125 0,-9.073242 -2.2823,-9.073242 h -5.789 q -0.668,0 -0.668,-0.612305 v -1.669922 q 0,-0.612305 0.5566,-0.612305 h 7.7373 q 1.7813,0 4.6758,-0.333984 0.4453,-0.05566 1.5586,-0.27832 1.1133,-0.278321 1.3916,-0.278321 0.835,0 0.835,0.890625 0,0.278321 -0.1113,3.00586 -0.1114,2.727539 -0.1114,3.172851 0,1.391602 0.7793,0.890625 0.9463,-0.723632 6.1787,-3.952148 1.2246,-0.890625 3.8409,-2.170899 4.0078,-1.391601 7.7373,-1.391601 4.3418,0 7.3476,2.504883 2.3379,2.003906 3.1729,5.399414 0.2783,1.113281 1.1133,0.445312 2.7832,-2.727539 4.3417,-3.673828 0.835,-0.723633 4.0079,-2.727539 2.7832,-1.50293 8.2939,-1.50293 5.6777,0 9.5742,3.896485 4.3418,4.286133 4.3418,17.422851 0,0.556641 -0.334,9.908203 -0.3339,9.295899 -0.3339,9.741211 0,7.403323 1.2246,7.403323 h 7.7929 q 0.4453,0 0.4453,0.55664 z"
         id="path49" />
      <path
         d="m 1215.2461,79.972855 q 0,11.633789 -7.292,18.814453 -3.3955,3.395512 -6.7353,4.787112 -4.7872,2.05957 -12.5245,2.05957 -5.5664,0 -12.747,-3.72949 -1.169,-0.61231 -1.169,0.44531 v 15.36328 q 0,3.72949 0.5567,7.68164 0.7236,5.84473 2.2265,5.84473 h 11.0215 q 0.4453,0 0.4453,0.50097 v 1.78125 q 0,0.72364 -0.334,0.72364 h -29.9472 q -0.7237,0 -0.7237,-0.50098 v -1.89258 q 0,-0.6123 0.7237,-0.6123 h 7.5146 q 0.8906,0 0.8906,-0.89063 0,-0.44531 0.1114,-30.559569 0.1113,-30.114258 0.1113,-31.171875 0,-11.522461 -1.7812,-11.522461 h -6.9581 q -0.7236,0 -0.7236,-0.612305 v -1.78125 q 0,-0.612304 0.4453,-0.612304 h 5.3994 q 4.8985,0 7.626,-0.333985 0.4453,-0.05566 1.7813,-0.333984 1.1132,-0.222656 1.3916,-0.222656 0.6123,0 0.6123,1.391601 0,0.333984 -0.2227,3.451172 -0.167,3.061523 -0.167,3.618164 0,1.614258 0.2227,1.614258 0.2226,0 0.501,-0.27832 3.7294,-3.506836 9.2402,-6.735352 4.4531,-2.616211 9.7969,-2.616211 7.6259,0 13.5263,6.067383 7.1807,7.291992 7.1807,20.261719 z m -7.1807,2.393554 q 0,-3.952148 -1.8925,-8.627929 -1.7813,-4.508789 -4.1192,-6.84668 -5.2324,-5.232422 -13.4707,-5.232422 -6.2344,0 -8.9062,1.335938 -1.7813,0.946289 -4.5088,2.950195 -0.3897,0.445312 -0.3897,1.391601 v 30.559571 q 0,1.224609 0.501,1.614258 6.123,3.061519 15.252,3.061519 9.4628,0 14.6396,-7.792965 2.8945,-4.286133 2.8945,-12.413086 z"
         id="path51" />
      <path
         d="m 1248.7002,104.85469 q 0,0.44531 -0.6123,0.44531 h -27.665 q -0.7237,0 -0.7237,-0.55664 v -1.94824 q 0,-0.66797 0.6123,-0.66797 h 9.0733 q 1.1689,0 1.1689,-1.28027 V 39.059769 q 0,-12.357422 -2.1709,-12.357422 h -6.8467 q -0.6679,0 -0.6679,-0.667969 v -1.836914 q 0,-0.779297 0.4453,-0.779297 h 4.3418 q 3.8965,0 8.1826,-1.113281 4.3418,-1.168945 3.7851,-1.168945 1.002,0 1.002,1.614257 0,0.166993 -0.334,33.008789 -0.334,32.841797 -0.334,34.010743 0,12.35742 2.0596,12.35742 h 8.0713 q 0.6123,0 0.6123,0.55664 z"
         id="path53" />
      <path
         d="m 1296.6826,97.785355 q 0,0.111328 -0.1113,0.333984 -1.7256,1.725586 -2.8945,2.560551 -2.0596,1.44726 -5.5664,3.00586 -5.6221,2.50488 -12.1905,2.50488 -9.7969,0 -15.5859,-5.78906 -7.0694,-7.06934 -7.0694,-17.2002 0,-7.236328 0.7793,-10.631836 1.9483,-8.293945 6.8467,-13.081054 5.6778,-5.622071 14.0274,-5.622071 4.0078,0 6.5683,1.280274 2.0039,0.946289 6.4014,4.11914 5.2324,3.729493 7.0693,7.737305 0.4453,1.001953 0.4453,1.725586 0,0.612305 -1.0019,1.001953 -2.1152,0.834961 -12.4131,2.727539 -11.7451,2.170899 -15.6416,2.170899 -0.334,0 -2.6719,0.05566 -2.2822,0.05566 -2.6718,0.05566 -0.668,0 -0.668,2.616211 0,11.522461 8.4053,18.814453 4.5087,3.896483 14.8066,3.896483 5.2881,0 8.6836,-1.168944 2.3935,-0.779297 3.2842,-1.669922 0.167,-0.111328 0.5009,-0.27832 0.2784,0 0.4454,0.389648 0.1113,0.166992 0.2226,0.445313 z m -10.4092,-29.780274 q 0,-0.445312 -0.5566,-1.447265 -2.3936,-4.230469 -6.0117,-7.013672 -3.6182,-2.783203 -8.3496,-2.783203 -3.5069,0 -6.7354,4.286132 -1.1689,1.614258 -2.5049,4.954102 -1.4472,3.618164 -1.4472,5.566406 0,0.890625 0.6679,0.890625 -0.5566,0 9.5743,-0.779297 9.6298,-0.779297 14.4726,-2.616211 0.8906,-0.389648 0.8906,-1.057617 z"
         id="path55" />
      <path
         d="m 1386.0791,104.85469 q 0,0.44531 -0.668,0.44531 h -22.7109 q -0.5566,0 -0.5566,-0.55664 v -1.72558 q 0,-0.66797 0.5566,-0.66797 h 5.2324 q 0.8906,0 1.0576,-0.94629 0.5567,-3.005861 0.5567,-24.492189 0,-10.576172 -2.2823,-13.470703 -2.7275,-3.395508 -8.3496,-3.395508 -7.292,0 -11.6894,4.564453 -0.501,0.612305 -0.501,1.447266 v 24.547852 q 0,11.745119 1.6143,11.745119 h 6.624 q 0.4453,0 0.4453,0.55664 v 1.83691 q 0,0.55664 -0.4453,0.55664 h -21.7647 q -0.6123,0 -0.6123,-0.44531 v -1.94824 q 0,-0.55664 0.501,-0.55664 h 5.4551 q 0.7793,0 0.7793,-1.05762 0,-0.33398 -0.056,-16.086914 -0.056,-15.752929 -0.056,-16.476562 0,-9.128906 -9.0176,-9.128906 -8.4053,0 -12.8584,4.453125 -0.668,0.667968 -0.668,1.447265 v 25.327149 q 0,11.633793 1.8926,11.633793 h 6.7353 q 0.6124,0 0.6124,0.44531 v 1.83691 q 0,0.55664 -0.501,0.55664 h -23.8242 q -0.4454,0 -0.5567,-0.16699 -0.1113,-0.16699 -0.1113,-0.38965 v -1.61426 q 0,-0.77929 0.668,-0.77929 h 6.624 q 1.0576,0 1.0576,-1.3916 0,-0.22266 -0.2783,-17.200199 -0.2227,-17.033203 -0.2227,-17.8125 0,-9.073242 -2.2822,-9.073242 h -5.7891 q -0.6679,0 -0.6679,-0.612305 v -1.669922 q 0,-0.612305 0.5566,-0.612305 h 7.7373 q 1.7813,0 4.6758,-0.333984 0.4453,-0.05566 1.5586,-0.27832 1.1133,-0.278321 1.3916,-0.278321 0.8349,0 0.8349,0.890625 0,0.278321 -0.1113,3.00586 -0.1113,2.727539 -0.1113,3.172851 0,1.391602 0.7793,0.890625 0.9463,-0.723632 6.1787,-3.952148 1.2246,-0.890625 3.8408,-2.170899 4.0078,-1.391601 7.7373,-1.391601 4.3418,0 7.3477,2.504883 2.3379,2.003906 3.1728,5.399414 0.2783,1.113281 1.1133,0.445312 2.7832,-2.727539 4.3418,-3.673828 0.835,-0.723633 4.0078,-2.727539 2.7832,-1.50293 8.294,-1.50293 5.6777,0 9.5742,3.896485 4.3418,4.286133 4.3418,17.422851 0,0.556641 -0.334,9.908203 -0.334,9.295899 -0.334,9.741211 0,7.403323 1.2246,7.403323 h 7.793 q 0.4453,0 0.4453,0.55664 z"
         id="path57" />
      <path
         d="m 1433.9502,97.785355 q 0,0.111328 -0.1113,0.333984 -1.7256,1.725586 -2.8946,2.560551 -2.0595,1.44726 -5.5664,3.00586 -5.622,2.50488 -12.1904,2.50488 -9.7969,0 -15.5859,-5.78906 -7.0694,-7.06934 -7.0694,-17.2002 0,-7.236328 0.7793,-10.631836 1.9483,-8.293945 6.8467,-13.081054 5.6777,-5.622071 14.0273,-5.622071 4.0079,0 6.5684,1.280274 2.0039,0.946289 6.4014,4.11914 5.2324,3.729493 7.0693,7.737305 0.4453,1.001953 0.4453,1.725586 0,0.612305 -1.0019,1.001953 -2.1153,0.834961 -12.4131,2.727539 -11.7451,2.170899 -15.6416,2.170899 -0.334,0 -2.6719,0.05566 -2.2822,0.05566 -2.6719,0.05566 -0.6679,0 -0.6679,2.616211 0,11.522461 8.4052,18.814453 4.5088,3.896483 14.8067,3.896483 5.2881,0 8.6836,-1.168944 2.3935,-0.779297 3.2842,-1.669922 0.1669,-0.111328 0.5009,-0.27832 0.2783,0 0.4453,0.389648 0.1114,0.166992 0.2227,0.445313 z M 1423.541,68.005081 q 0,-0.445312 -0.5566,-1.447265 -2.3936,-4.230469 -6.0117,-7.013672 -3.6182,-2.783203 -8.3497,-2.783203 -3.5068,0 -6.7353,4.286132 -1.1689,1.614258 -2.5049,4.954102 -1.4473,3.618164 -1.4473,5.566406 0,0.890625 0.668,0.890625 -0.5566,0 9.5742,-0.779297 9.6299,-0.779297 14.4727,-2.616211 0.8906,-0.389648 0.8906,-1.057617 z"
         id="path59" />
      <path
         d="m 1495.5146,104.63203 q 0,0.66797 -0.4453,0.66797 h -23.4902 q -0.5566,0 -0.5566,-0.44531 v -1.94824 q 0,-0.55664 0.5566,-0.55664 h 5.9561 q 0.7236,0 1.0019,-0.94629 0.7793,-5.844728 0.7793,-25.88379 0,-9.351563 -2.8945,-12.079102 -2.8389,-2.727539 -8.7393,-2.727539 -7.459,0 -12.3017,3.339844 -0.7793,0.500976 -0.7793,1.447265 -0.334,2.393555 -0.334,25.215821 0,11.633791 1.7256,11.633791 h 7.6259 q 0.5567,0 0.5567,0.55664 v 1.94824 q 0,0.44531 -0.5567,0.44531 h -24.9931 q -0.2783,0 -0.4453,-0.11133 -0.1114,-0.11132 -0.1114,-0.55664 v -1.83691 q 0,-0.44531 0.5567,-0.44531 h 7.0693 q 0.835,0 0.835,-1.05762 0,-0.33398 0.167,-17.756835 0.167,-17.478516 0.167,-18.369141 0,-8.293945 -1.7256,-8.293945 h -6.7354 q -0.6679,0 -0.6679,-0.723633 v -1.669922 q 0,-0.500977 0.4453,-0.500977 h 7.1806 q 0.6123,0 2.8946,-0.111328 2.3379,-0.111328 2.4492,-0.111328 0.5566,-0.05566 1.7256,-0.27832 1.1689,-0.27832 1.6142,-0.27832 0.7793,0 0.7793,1.280273 0,0.27832 -0.1113,2.894531 -0.1113,2.616211 -0.1113,3.00586 0,1.725586 0.6679,1.057617 4.7871,-3.896485 9.2403,-5.844727 4.2304,-1.836914 8.1269,-1.836914 5.9561,0 9.9082,3.896485 4.2305,4.11914 4.2305,15.363281 0,3.729492 -0.3897,12.635742 -0.3339,8.850586 -0.3339,8.683594 0,8.126957 1.1689,8.126957 h 7.626 q 0.6679,0 0.6679,0.33398 z"
         id="path61" />
      <path
         d="m 1534.8691,98.564651 q 0,0.834961 -0.4453,1.280274 -2.2822,1.836915 -5.956,3.506835 -6.2901,2.9502 -11.6895,2.9502 -11.6338,0 -11.6338,-11.856449 0,-0.723633 0.2227,-12.357422 0.2226,-11.633789 0.2226,-12.246094 0,-0.723633 -0.1113,-4.787109 -0.1113,-4.119141 -0.1113,-4.341797 0,-1.168945 -1.0576,-1.669922 -0.835,-0.445312 -4.3418,-1.948242 -0.7237,-0.333984 -0.668,-1.280274 0,-0.723632 0.835,-1.335937 5.5664,-4.731445 11.8564,-9.963867 0.835,-0.556641 1.4473,-0.556641 0.8906,0 0.5566,1.614258 -0.668,3.618164 -0.668,7.40332 0,1.836914 0.5567,1.836914 0.501,0 9.6299,-0.27832 9.1289,-0.333984 9.4072,-0.333984 1.1689,0 0.835,1.168945 0,1.113281 -0.835,3.172852 -0.2783,0.83496 -1.002,0.83496 -0.5009,0 -9.1289,-0.05566 -8.5722,-0.05566 -8.9062,-0.05566 -0.668,0 -0.668,0.556641 v 30.893555 q 0,4.842773 1.3916,7.069336 1.503,2.504885 8.4053,2.504885 3.7852,0 8.9062,-1.725589 2.2266,-1.001953 2.3936,-1.001953 0.5566,0 0.5566,1.001953 z"
         id="path63" />
      <path
         d="m 1585.4678,101.62617 q 0,0.27833 -0.2227,0.72364 -3.1728,3.17285 -4.5644,4.06347 -0.501,0.38965 -1.002,0.38965 -3.2842,0 -6.5127,-3.06152 -3.0058,-2.83887 -4.4531,-6.791016 -0.334,-1.001953 -0.8906,-0.222657 -0.6123,0.946289 -3.1172,3.228516 -2.5049,2.282227 -3.5069,2.838867 -5.455,3.17285 -9.9082,3.17285 -4.2304,0 -6.29,-1.44726 -3.1729,-2.33789 -3.1729,-6.958012 0,-5.455078 3.4512,-10.297851 2.4492,-3.451172 7.626,-5.789063 5.6221,-2.560547 15.0293,-4.341797 0.501,-0.111328 0.5566,-1.224609 0.3897,-8.516602 0,-11.522461 -0.3339,-2.950195 -2.5605,-4.397461 -2.2266,-1.447265 -6.2901,-1.447265 -5.7333,0 -8.0156,1.391601 -1.3359,0.946289 -1.1133,1.948242 v 1.558594 q 0,2.449219 -1.2802,4.341797 -2.0039,3.117187 -4.6758,3.117187 -1.9483,0 -1.9483,-2.560546 0,-2.170899 2.5049,-5.399415 2.5049,-3.228515 5.5108,-5.065429 5.3994,-3.28418 14.8066,-3.28418 6.2344,0 9.0176,2.616211 2.0596,1.892578 2.0596,7.959961 0,4.397461 -0.5567,13.248047 -0.501,8.850586 -0.501,10.019531 0,5.510742 2.8389,8.90625 2.0596,2.393555 6.4014,3.618168 0.7793,0.33398 0.7793,0.66796 z m -17.2002,-20.818354 q 0,-1.057618 -0.8906,-1.057618 -4.3418,0 -9.6856,2.393555 -9.0176,4.063477 -9.0176,10.96582 0,4.230469 2.0596,5.789063 1.7256,1.391604 5.4551,1.391604 5.0097,0 9.9082,-4.341799 1.3359,-1.168946 1.5029,-2.838868 0.668,-6.624023 0.668,-12.301757 z"
         id="path65" />
      <path
         d="m 1625.4902,98.564651 q 0,0.834961 -0.4453,1.280274 -2.2822,1.836915 -5.956,3.506835 -6.2901,2.9502 -11.6895,2.9502 -11.6338,0 -11.6338,-11.856449 0,-0.723633 0.2227,-12.357422 0.2226,-11.633789 0.2226,-12.246094 0,-0.723633 -0.1113,-4.787109 -0.1113,-4.119141 -0.1113,-4.341797 0,-1.168945 -1.0576,-1.669922 -0.835,-0.445312 -4.3418,-1.948242 -0.7237,-0.333984 -0.668,-1.280274 0,-0.723632 0.835,-1.335937 5.5664,-4.731445 11.8564,-9.963867 0.835,-0.556641 1.4473,-0.556641 0.8906,0 0.5566,1.614258 -0.668,3.618164 -0.668,7.40332 0,1.836914 0.5567,1.836914 0.501,0 9.6299,-0.27832 9.1289,-0.333984 9.4072,-0.333984 1.1689,0 0.835,1.168945 0,1.113281 -0.835,3.172852 -0.2783,0.83496 -1.002,0.83496 -0.5009,0 -9.1289,-0.05566 -8.5722,-0.05566 -8.9062,-0.05566 -0.668,0 -0.668,0.556641 v 30.893555 q 0,4.842773 1.3916,7.069336 1.5029,2.504885 8.4053,2.504885 3.7851,0 8.9062,-1.725589 2.2266,-1.001953 2.3936,-1.001953 0.5566,0 0.5566,1.001953 z"
         id="path67" />
      <path
         d="m 1647.7559,34.272659 q 0,2.950196 -2.6719,5.232422 -2.2822,1.948242 -4.2861,1.948242 -3.6739,0 -3.6739,-3.618164 0,-2.170898 1.8369,-4.397461 2.2266,-2.671875 5.4551,-2.671875 3.3399,0 3.3399,3.506836 z m 9.1845,70.470701 q 0,0.55664 -0.6679,0.55664 h -26.4405 q -0.5566,0 -0.5566,-0.66797 v -1.72558 q 0,-0.7793 0.4453,-0.7793 h 8.0713 q 1.0576,0 1.0576,-1.16894 0,-0.33399 0.056,-13.470707 0.056,-13.192383 0.056,-14.583984 0,-8.683594 -0.167,-10.40918 -0.6123,-5.176758 -3.0058,-5.176758 h -5.5108 q -0.8906,0 -0.8906,-0.55664 v -1.948243 q 0,-0.723632 0.5567,-0.723632 h 3.2841 q 5.1768,0 9.9639,-0.445313 3.5625,-0.333984 3.2842,-0.333984 1.2803,0 1.2803,1.725586 0,0.166992 -0.4454,16.58789 -0.3896,16.365235 -0.3896,17.144531 0,13.359374 2.7275,13.359374 h 6.7354 q 0.5566,0 0.5566,0.55664 z"
         id="path69" />
      <path
         d="m 1710.6563,79.527542 q 0,7.236328 -2.3936,12.914063 -2.7832,6.568359 -10.1309,10.687495 -5.0654,2.83887 -11.7451,2.83887 -7.5703,0 -10.7431,-1.33594 -6.7911,-3.00586 -10.2422,-9.908199 -3.3955,-6.958008 -3.3955,-14.750976 0,-8.572266 3.7295,-15.140625 3.3955,-5.900391 9.5742,-9.017579 4.7871,-2.393554 13.582,-2.393554 7.125,0 11.2998,2.616211 5.4551,3.451172 8.0713,9.796875 2.3936,5.844726 2.3936,13.693359 z m -7.8487,2.727539 q 0,-11.578125 -5.5107,-18.09082 -5.6221,-6.735352 -14.6953,-6.735352 -4.7315,0 -6.4571,0.779297 -1.1689,0.500977 -2.6718,2.616211 -3.2842,4.787109 -3.2842,14.25 0,9.852539 3.5068,18.035156 2.4492,5.622071 6.5127,8.071287 3.5625,2.1709 7.9043,2.1709 5.0098,0 7.7373,-1.55859 3.2842,-1.948245 5.3438,-7.458987 1.6142,-4.174805 1.6142,-12.079102 z"
         id="path71" />
      <path
         d="m 1774.1689,104.63203 q 0,0.66797 -0.4453,0.66797 h -23.4902 q -0.5566,0 -0.5566,-0.44531 v -1.94824 q 0,-0.55664 0.5566,-0.55664 h 5.9561 q 0.7236,0 1.0019,-0.94629 0.7793,-5.844728 0.7793,-25.88379 0,-9.351563 -2.8945,-12.079102 -2.8389,-2.727539 -8.7393,-2.727539 -7.459,0 -12.3017,3.339844 -0.7793,0.500976 -0.7793,1.447265 -0.334,2.393555 -0.334,25.215821 0,11.633791 1.7256,11.633791 h 7.6259 q 0.5567,0 0.5567,0.55664 v 1.94824 q 0,0.44531 -0.5567,0.44531 h -24.9931 q -0.2783,0 -0.4453,-0.11133 -0.1114,-0.11132 -0.1114,-0.55664 v -1.83691 q 0,-0.44531 0.5567,-0.44531 h 7.0693 q 0.835,0 0.835,-1.05762 0,-0.33398 0.167,-17.756835 0.167,-17.478516 0.167,-18.369141 0,-8.293945 -1.7256,-8.293945 h -6.7354 q -0.668,0 -0.668,-0.723633 v -1.669922 q 0,-0.500977 0.4454,-0.500977 h 7.1806 q 0.6123,0 2.8946,-0.111328 2.3378,-0.111328 2.4492,-0.111328 0.5566,-0.05566 1.7256,-0.27832 1.1689,-0.27832 1.6142,-0.27832 0.7793,0 0.7793,1.280273 0,0.27832 -0.1113,2.894531 -0.1113,2.616211 -0.1113,3.00586 0,1.725586 0.6679,1.057617 4.7871,-3.896485 9.2403,-5.844727 4.2304,-1.836914 8.1269,-1.836914 5.9561,0 9.9082,3.896485 4.2305,4.11914 4.2305,15.363281 0,3.729492 -0.3897,12.635742 -0.3339,8.850586 -0.3339,8.683594 0,8.126957 1.1689,8.126957 h 7.626 q 0.6679,0 0.6679,0.33398 z"
         id="path73" />
    </g>
  </g>
</svg>
