<?xml version="1.0" encoding="UTF-8" standalone="no"?>
<!-- Created with Inkscape (http://www.inkscape.org/) -->

<svg
   width="300mm"
   height="30mm"
   viewBox="0 0 300 30"
   version="1.1"
   id="svg1"
   inkscape:version="1.4.2 (f4327f4, 2025-05-13)"
   sodipodi:docname="title.svg"
   xmlns:inkscape="http://www.inkscape.org/namespaces/inkscape"
   xmlns:sodipodi="http://sodipodi.sourceforge.net/DTD/sodipodi-0.dtd"
   xmlns="http://www.w3.org/2000/svg"
   xmlns:svg="http://www.w3.org/2000/svg">
  <sodipodi:namedview
     id="namedview1"
     pagecolor="#7c7c7c"
     bordercolor="#000000"
     borderopacity="0.25"
     inkscape:showpageshadow="2"
     inkscape:pageopacity="0.0"
     inkscape:pagecheckerboard="0"
     inkscape:deskcolor="#d1d1d1"
     inkscape:document-units="mm"
     inkscape:zoom="0.76167929"
     inkscape:cx="502.17986"
     inkscape:cy="246.1666"
     inkscape:window-width="1920"
     inkscape:window-height="1057"
     inkscape:window-x="-8"
     inkscape:window-y="-8"
     inkscape:window-maximized="1"
     inkscape:current-layer="layer1" />
  <defs
     id="defs1">
    <rect
       x="19.693329"
       y="35.44799"
       width="1100.2006"
       height="235.00705"
       id="rect1" />
  </defs>
  <g
     inkscape:label="Layer 1"
     inkscape:groupmode="layer"
     id="layer1">
    <path
       d="m 47.818359,118.60352 q 0,0.375 -0.28125,0.375 H 24.802734 q -0.421875,0 -0.515625,-0.14063 -0.09375,-0.14062 -0.09375,-0.32812 v -1.45313 q 0,-0.42187 0.140625,-0.46875 0.140625,-0.0937 0.328125,-0.0937 h 6.375 q 0.65625,0 0.65625,-1.35937 l -0.09375,-48.468754 q 0,-8.859375 -1.640625,-8.859375 h -5.953125 q -0.65625,0 -0.65625,-0.46875 v -1.640625 q 0,-0.375 0.46875,-0.375 h 22.734375 q 0.421875,0 0.421875,0.375 v 1.734375 q 0,0.375 -0.515625,0.375 h -6.609375 q -0.84375,0 -0.84375,0.984375 -0.09375,42.562504 -0.09375,43.968754 0,6.9375 0.04687,7.92187 0.328125,5.8125 1.875,5.8125 h 6.609375 q 0.375,0 0.375,0.375 z M 108.33398,55.884766 q -0.42187,2.953125 -1.45312,6.84375 -0.1875,0.65625 -0.5625,0.65625 -0.46875,0 -0.89063,-0.75 -1.07812,-2.109375 -3.75,-2.71875 -4.640621,-1.03125 -16.687496,-1.03125 -0.75,0 -0.796875,0.609375 -0.04687,0.609375 -0.28125,21.84375 -0.28125,20.390629 -0.28125,21.796879 0,13.35937 2.296875,13.35937 h 8.0625 q 0.328125,0 0.328125,0.375 v 1.64063 q 0,0.46875 -0.328125,0.46875 h -25.78125 q -0.515625,0 -0.515625,-0.46875 v -1.54688 q 0,-0.46875 0.515625,-0.46875 h 7.546875 q 0.890625,0 0.890625,-1.21875 -0.1875,-9.84375 -0.1875,-10.78125 0,-0.79687 0.234375,-15.796874 0.234375,-15.046875 0.234375,-15.703125 0,-14.109375 -1.640625,-14.109375 -12.09375,0 -17.0625,1.359375 -3.609375,0.9375 -4.640625,2.578125 -0.515625,0.84375 -0.9375,0.84375 -0.609375,0 -0.609375,-0.375 0,-0.515625 0.328125,-1.21875 1.3125,-4.734375 2.109375,-7.03125 0.1875,-0.609375 1.03125,-0.46875 0.984375,0.140625 9.65625,0.5625 10.125,0.46875 16.359375,0.46875 20.062496,0 22.781246,-0.09375 1.26563,-0.04687 2.34375,-0.1875 1.125,-0.1875 1.07813,-0.1875 0.60937,0 0.60937,0.75 z m 12.75,1.921875 q 0.1875,0.234375 -0.32812,1.828125 -0.70313,2.296875 0,6.46875 1.03125,5.765625 0,8.625 -0.42188,1.21875 -0.9375,1.640625 -0.46875,0.234375 -1.21875,-0.140625 -0.75,-0.421875 -0.89063,-0.9375 -0.1875,-0.5625 0.375,-1.546875 0.70313,-2.203125 -0.1875,-7.359375 -0.79687,-4.734375 0.1875,-7.6875 0.375,-1.03125 0.79688,-1.453125 0.14062,-0.1875 0.51562,-0.1875 0.375,0 0.89063,0.1875 0.28125,0.1875 0.79687,0.5625 z m 51.04688,43.593749 q 0,7.78125 -4.96875,12.79688 -5.29688,5.25 -15.375,5.25 -11.8125,0 -16.6875,-4.3125 -0.5625,-0.51563 -0.5625,-1.92188 0,-0.32812 -0.0469,-5.48437 -0.0469,-5.15625 -0.0469,-5.53125 0,-0.60938 0.65625,-0.60938 h 1.92187 q 0.5625,0 0.65625,0.60938 0.0937,0.60937 0.28125,2.95312 0.28125,5.0625 3.75,8.25 1.64063,1.5 4.6875,2.53125 3.04688,1.03125 5.48438,1.03125 9.375,0 12.51562,-6.23437 1.40625,-2.90625 1.40625,-7.21875 0,-3.843754 -2.67187,-6.609379 -3,-3.09375 -10.45313,-5.765625 -8.4375,-3 -12,-6.046875 -4.73437,-3.984375 -4.73437,-12.46875 0,-7.96875 6.46875,-13.453125 4.92187,-4.21875 12.9375,-4.21875 5.29687,0 9.84375,1.78125 2.90625,1.125 4.26562,2.34375 0.65625,0.46875 0.75,1.265625 0.51563,3.5625 0.51563,9.5625 0,0.984375 -0.28125,0.984375 h -2.25 q -0.32813,0 -0.46875,-0.5625 -0.28125,-1.359375 -0.65625,-3.5625 -0.70313,-3.234375 -3.28125,-4.6875 -4.73438,-2.71875 -10.92188,-2.71875 -5.57812,0 -8.25,2.390625 -2.8125,2.484375 -2.8125,8.765625 0,3.84375 2.625,6.703125 1.26563,1.40625 4.92188,3 3.04687,1.21875 6.09375,2.484375 6.04687,2.625 7.125,3.234375 3.51562,1.921875 5.95312,4.640625 3.60938,4.078125 3.60938,10.828124 z m 96.09375,-44.249999 q 0,0.5625 -0.46875,0.5625 h -6.51563 q -0.98437,0 -0.98437,1.265625 0,0.375 -0.0937,12.796875 -0.0937,12.375 -0.0937,13.40625 0,0.984375 -0.1875,16.734379 -0.1875,15.75 -0.1875,16.59375 0,2.20312 -0.5625,2.20312 -0.65625,0 -1.07813,-0.5625 -4.26562,-5.71875 -25.26562,-32.484374 -7.45313,-9.984375 -17.53125,-22.265625 -0.65625,-0.5625 -0.89063,0.375 -0.14062,0.609375 -0.70312,17.203125 -0.51563,16.78125 -0.51563,21.046874 0,12.46875 2.48438,12.46875 h 6.23437 q 0.46875,0 0.46875,0.375 v 1.73438 q 0,0.375 -0.375,0.375 h -18.42187 q -0.60938,0 -0.60938,-0.28125 v -1.73438 q 0,-0.46875 0.60938,-0.46875 h 5.76562 q 0.75,0 0.75,-0.70312 v -6.89063 q 0,-2.76562 0.65625,-22.453124 0.70313,-19.6875 0.70313,-20.0625 0,-8.671875 -5.95313,-8.671875 h -3.28125 q -0.375,0 -0.375,-0.46875 v -1.546875 q 0,-0.46875 0.46875,-0.46875 h 14.8125 q 0.60938,0 1.03125,0.75 0.42188,0.75 7.73438,10.59375 7.35937,9.796875 8.29687,10.921875 10.5,13.96875 22.26563,28.828129 0.1875,0.14062 0.375,0.14062 0.32812,0 0.42187,-1.3125 0.0469,-0.89062 0,-16.593749 -0.0469,-15.75 -0.0937,-17.015625 -0.70312,-13.828125 -3.375,-13.828125 h -6.42187 q -0.60938,0 -0.60938,-0.46875 v -1.546875 q 0,-0.46875 0.51563,-0.46875 h 20.4375 q 0.5625,0 0.5625,0.375 z m 29.39062,61.453129 q 0,0.375 -0.28125,0.375 h -22.73437 q -0.42188,0 -0.51563,-0.14063 -0.0937,-0.14062 -0.0937,-0.32812 v -1.45313 q 0,-0.42187 0.14063,-0.46875 0.14062,-0.0937 0.32812,-0.0937 h 6.375 q 0.65625,0 0.65625,-1.35937 l -0.0937,-48.468754 q 0,-8.859375 -1.64062,-8.859375 h -5.95313 q -0.65625,0 -0.65625,-0.46875 v -1.640625 q 0,-0.375 0.46875,-0.375 h 22.73438 q 0.42187,0 0.42187,0.375 v 1.734375 q 0,0.375 -0.51562,0.375 h -6.60938 q -0.84375,0 -0.84375,0.984375 -0.0937,42.562504 -0.0937,43.968754 0,6.9375 0.0469,7.92187 0.32812,5.8125 1.875,5.8125 h 6.60937 q 0.375,0 0.375,0.375 z m 64.82813,-8.85938 q 0.23437,0.42188 -0.0937,0.79688 -3.51563,3.79687 -11.625,6.70312 -6.375,2.29688 -16.03125,2.29688 -8.20313,0 -12.98438,-1.64063 -4.92187,-1.6875 -9.5625,-6.23437 -7.6875,-7.45313 -7.6875,-22.734379 0,-8.484375 4.40625,-17.015625 3.5625,-6.84375 10.82813,-11.578125 9.46875,-6.140625 24.32812,-6.140625 5.57813,0 10.17188,0.46875 5.39062,0.5625 6.79687,1.359375 0.28125,0.09375 0.28125,0.46875 -0.0469,0.75 -0.46875,3.9375 -0.28125,2.578125 -0.46875,4.5 -0.0937,0.5625 -0.375,0.5625 -0.42187,0 -0.51562,-0.421875 -0.0469,-0.421875 -0.51563,-1.3125 -0.42187,-0.890625 -3.89062,-3.234375 -4.96875,-2.484375 -14.67188,-2.484375 -12.46875,0 -19.875,7.640625 -8.34375,8.671875 -8.34375,21.703125 0,14.296874 8.8125,22.359374 4.45313,4.07813 9,5.53125 4.07813,1.3125 10.96875,1.3125 5.10938,0 9.89063,-2.20312 4.78125,-2.25 7.125,-5.85938 1.3125,-2.10937 1.59375,-3.9375 0,-0.79687 0.28125,-0.79687 0.1875,0 0.32812,0.42187 0.32813,1.54688 1.03125,2.95313 0.46875,1.07812 1.26563,2.57812 z m 57.09375,2.53125 q -1.3125,2.67188 -3.14063,6.14063 -0.375,0.5625 -0.98437,0.5625 h -44.34375 q -0.46875,0 -0.46875,-0.5625 v -1.45313 q 0,-0.46875 0.375,-0.46875 h 6.9375 q 0.9375,0 0.9375,-0.98437 0,-0.42188 -0.0937,-14.39063 -0.0937,-14.015624 -0.0937,-14.437499 0,-0.46875 -0.0469,-9.65625 -0.0469,-9.234375 -0.0469,-9.796875 0,-9.515625 -1.82813,-9.515625 h -5.67187 q -0.46875,0 -0.46875,-0.46875 v -1.546875 q 0,-0.46875 0.5625,-0.46875 h 41.95312 q 0.84375,0 2.25,-0.09375 1.45313,-0.09375 1.40625,-0.09375 0.60938,0 0.46875,0.46875 -0.65625,2.578125 -1.64062,5.953125 -0.375,1.078125 -0.75,1.078125 0,0 -0.65625,-0.703125 -1.73438,-1.6875 -5.48438,-2.390625 -5.25,-0.9375 -22.26562,-1.125 -0.5625,0 -0.79688,0.5625 -0.1875,0.5625 -0.1875,23.25 0,0.9375 0.79688,0.9375 h 22.92187 q 0.65625,0 0.75,-0.703125 0.14063,-0.703125 0.375,-3 0.28125,-2.296875 0.32813,-2.53125 0,-0.890625 0.5625,-0.890625 h 0.70312 q 0.5625,0 0.5625,0.796875 0,0.1875 -0.1875,3.9375 -0.1875,3.703125 -0.1875,4.40625 0,0.703125 0.0937,4.921875 0.0937,4.21875 0.0937,4.5 0,1.03125 -0.51562,1.03125 h -0.75 q -0.46875,0 -0.5625,-0.65625 -0.1875,-3 -0.46875,-7.125 -0.14063,-0.9375 -0.89063,-0.9375 -0.42187,0 -11.57812,-0.1875 -11.10938,-0.1875 -11.34375,-0.1875 -0.60938,0 -0.60938,0.84375 v 17.671874 q 0,11.25 2.4375,11.25 21.9375,0 29.15625,-3.375 1.73438,-0.98437 2.10938,-1.17187 0.46875,0 0.28125,0.60937 z m 80.10937,-56.390624 q -0.42187,2.953125 -1.45312,6.84375 -0.1875,0.65625 -0.5625,0.65625 -0.46875,0 -0.89063,-0.75 -1.07812,-2.109375 -3.75,-2.71875 -4.64062,-1.03125 -16.6875,-1.03125 -0.75,0 -0.79687,0.609375 -0.0469,0.609375 -0.28125,21.84375 -0.28125,20.390629 -0.28125,21.796879 0,13.35937 2.29687,13.35937 h 8.0625 q 0.32813,0 0.32813,0.375 v 1.64063 q 0,0.46875 -0.32813,0.46875 h -25.78125 q -0.51562,0 -0.51562,-0.46875 v -1.54688 q 0,-0.46875 0.51562,-0.46875 h 7.54688 q 0.89062,0 0.89062,-1.21875 -0.1875,-9.84375 -0.1875,-10.78125 0,-0.79687 0.23438,-15.796874 0.23437,-15.046875 0.23437,-15.703125 0,-14.109375 -1.64062,-14.109375 -12.09375,0 -17.0625,1.359375 -3.60938,0.9375 -4.64063,2.578125 -0.51562,0.84375 -0.9375,0.84375 -0.60937,0 -0.60937,-0.375 0,-0.515625 0.32812,-1.21875 1.3125,-4.734375 2.10938,-7.03125 0.1875,-0.609375 1.03125,-0.46875 0.98437,0.140625 9.65625,0.5625 10.125,0.46875 16.35937,0.46875 20.0625,0 22.78125,-0.09375 1.26563,-0.04687 2.34375,-0.1875 1.125,-0.1875 1.07813,-0.1875 0.60937,0 0.60937,0.75 z m 67.26563,29.859375 q 0,14.812499 -7.125,23.156249 -2.48438,2.95313 -4.125,4.26563 -3.42188,2.71875 -8.90625,4.73437 -4.40625,1.64063 -11.4375,1.64063 -11.20313,0 -16.875,-2.85938 -4.125,-2.0625 -6.9375,-5.29687 -3.46875,-3.9375 -4.96875,-8.67188 -1.82813,-5.671874 -1.82813,-14.953124 0,-6.328125 1.73438,-12 2.0625,-6.703125 6.14062,-11.296875 4.07813,-4.59375 11.71875,-7.59375 5.39063,-2.109375 12,-2.109375 10.03125,0 15.32813,2.390625 5.95312,2.671875 9.32812,7.3125 5.95313,8.109375 5.95313,21.28125 z m -7.40625,2.53125 q 0,-6.75 -1.54688,-11.8125 -1.73437,-5.859375 -5.53125,-10.171875 -3.46875,-3.9375 -8.25,-5.953125 -5.53125,-2.296875 -11.0625,-2.296875 -7.17187,0 -10.35937,2.296875 -5.8125,4.125 -7.96875,9.09375 -2.90625,6.5625 -2.90625,16.03125 0,13.96875 5.20312,21.984379 3.14063,4.875 9.42188,7.78125 4.92187,2.29687 10.73437,2.29687 6.5625,0 12.09375,-3.65625 4.3125,-2.8125 7.40625,-9.65625 2.76563,-6.234374 2.76563,-15.937499 z m 115.21875,30.234379 q 0,0.46875 -0.46875,0.46875 h -21.42188 q -0.65625,0 -0.65625,-0.46875 v -1.54688 q 0,-0.46875 0.46875,-0.46875 h 5.0625 q 1.17188,0 1.17188,-1.17187 V 91.322266 q 0,-18.515625 -0.375,-24.75 -0.0937,-1.359375 -0.46875,-1.359375 -0.28125,0 -0.70313,0.890625 -0.98437,2.015625 -18.98437,43.078124 -2.71875,6.09375 -4.3125,10.35938 -0.46875,0.79687 -0.79688,0.79687 -0.65625,0 -0.84375,-0.70312 -6.46875,-13.21875 -13.35937,-27.421879 -3.84375,-8.34375 -10.64063,-22.078125 -0.42187,-0.796875 -0.75,-0.796875 -0.375,0 -0.42187,0.984375 -1.26563,18.703125 -1.26563,27.328125 v 10.593749 q 0,8.25 2.25,8.25 h 5.53125 q 0.51563,0 0.51563,0.375 v 1.64063 q 0,0.46875 -0.32813,0.46875 h -16.96875 q -0.5625,0 -0.5625,-0.375 v -1.45313 q 0,-0.65625 0.46875,-0.65625 h 4.875 q 1.26563,0 1.26563,-2.10937 0,-7.3125 0.65625,-26.812504 0.23437,-3.65625 0.42187,-7.359375 0.375,-7.265625 0.375,-12.515625 0,-6.84375 -4.73437,-9.1875 -1.03125,-0.515625 -4.21875,-0.796875 -0.375,0 -0.375,-0.375 v -1.734375 q 0,-0.375 0.375,-0.375 h 12.375 q 0.84375,0 1.17187,0.65625 4.35938,8.625 9.42188,18.75 7.40625,15.9375 16.03125,33.609374 0.79687,1.17188 1.21875,0.375 5.25,-11.953124 11.25,-25.359374 5.8125,-13.40625 11.90625,-27.140625 0.46875,-0.890625 1.45312,-0.890625 h 12 q 0.46875,0 0.46875,0.375 v 1.640625 q 0,0.46875 -0.28125,0.46875 h -4.64062 q -1.40625,0 -1.6875,3.1875 -0.32813,3 -0.32813,23.53125 0,15.09375 0.32813,21.609379 0.46875,10.45312 2.76562,10.45312 h 5.39063 q 0.375,0 0.375,0.46875 z m 56.0625,-6.23438 q -1.3125,2.67188 -3.14063,6.14063 -0.375,0.5625 -0.98437,0.5625 h -44.34375 q -0.46875,0 -0.46875,-0.5625 v -1.45313 q 0,-0.46875 0.375,-0.46875 h 6.9375 q 0.9375,0 0.9375,-0.98437 0,-0.42188 -0.0937,-14.39063 -0.0937,-14.015624 -0.0937,-14.437499 0,-0.46875 -0.0469,-9.65625 -0.0469,-9.234375 -0.0469,-9.796875 0,-9.515625 -1.82813,-9.515625 h -5.67187 q -0.46875,0 -0.46875,-0.46875 v -1.546875 q 0,-0.46875 0.5625,-0.46875 h 41.95312 q 0.84375,0 2.25,-0.09375 1.45313,-0.09375 1.40625,-0.09375 0.60938,0 0.46875,0.46875 -0.65625,2.578125 -1.64062,5.953125 -0.375,1.078125 -0.75,1.078125 0,0 -0.65625,-0.703125 -1.73438,-1.6875 -5.48438,-2.390625 -5.25,-0.9375 -22.26562,-1.125 -0.5625,0 -0.79688,0.5625 -0.1875,0.5625 -0.1875,23.25 0,0.9375 0.79688,0.9375 h 22.92187 q 0.65625,0 0.75,-0.703125 0.14063,-0.703125 0.375,-3 0.28125,-2.296875 0.32813,-2.53125 0,-0.890625 0.5625,-0.890625 h 0.70312 q 0.5625,0 0.5625,0.796875 0,0.1875 -0.1875,3.9375 -0.1875,3.703125 -0.1875,4.40625 0,0.703125 0.0937,4.921875 0.0937,4.21875 0.0937,4.5 0,1.03125 -0.51562,1.03125 h -0.75 q -0.46875,0 -0.5625,-0.65625 -0.1875,-3 -0.46875,-7.125 -0.14063,-0.9375 -0.89063,-0.9375 -0.42187,0 -11.57812,-0.1875 -11.10938,-0.1875 -11.34375,-0.1875 -0.60938,0 -0.60938,0.84375 v 17.671874 q 0,11.25 2.4375,11.25 21.9375,0 29.15625,-3.375 1.73438,-0.98437 2.10938,-1.17187 0.46875,0 0.28125,0.60937 z m 55.03125,0 q -1.3125,2.67188 -3.14063,6.14063 -0.375,0.5625 -0.98437,0.5625 h -44.34375 q -0.46875,0 -0.46875,-0.5625 v -1.45313 q 0,-0.46875 0.375,-0.46875 h 6.9375 q 0.9375,0 0.9375,-0.98437 0,-0.42188 -0.0937,-14.39063 -0.0937,-14.015624 -0.0937,-14.437499 0,-0.46875 -0.0469,-9.65625 -0.0469,-9.234375 -0.0469,-9.796875 0,-9.515625 -1.82813,-9.515625 h -5.67187 q -0.46875,0 -0.46875,-0.46875 v -1.546875 q 0,-0.46875 0.5625,-0.46875 h 41.95312 q 0.84375,0 2.25,-0.09375 1.45313,-0.09375 1.40625,-0.09375 0.60938,0 0.46875,0.46875 -0.65625,2.578125 -1.64062,5.953125 -0.375,1.078125 -0.75,1.078125 0,0 -0.65625,-0.703125 -1.73438,-1.6875 -5.48438,-2.390625 -5.25,-0.9375 -22.26562,-1.125 -0.5625,0 -0.79688,0.5625 -0.1875,0.5625 -0.1875,23.25 0,0.9375 0.79688,0.9375 h 22.92187 q 0.65625,0 0.75,-0.703125 0.14063,-0.703125 0.375,-3 0.28125,-2.296875 0.32813,-2.53125 0,-0.890625 0.5625,-0.890625 h 0.70312 q 0.5625,0 0.5625,0.796875 0,0.1875 -0.1875,3.9375 -0.1875,3.703125 -0.1875,4.40625 0,0.703125 0.0937,4.921875 0.0937,4.21875 0.0937,4.5 0,1.03125 -0.51562,1.03125 h -0.75 q -0.46875,0 -0.5625,-0.65625 -0.1875,-3 -0.46875,-7.125 -0.14063,-0.9375 -0.89063,-0.9375 -0.42187,0 -11.57812,-0.1875 -11.10938,-0.1875 -11.34375,-0.1875 -0.60938,0 -0.60938,0.84375 v 17.671874 q 0,11.25 2.4375,11.25 21.9375,0 29.15625,-3.375 1.73438,-0.98437 2.10938,-1.17187 0.46875,0 0.28125,0.60937 z m 59.57812,-56.390624 q -0.42187,2.953125 -1.45312,6.84375 -0.1875,0.65625 -0.5625,0.65625 -0.46875,0 -0.89063,-0.75 -1.07812,-2.109375 -3.75,-2.71875 -4.64062,-1.03125 -16.6875,-1.03125 -0.75,0 -0.79687,0.609375 -0.0469,0.609375 -0.28125,21.84375 -0.28125,20.390629 -0.28125,21.796879 0,13.35937 2.29687,13.35937 h 8.0625 q 0.32813,0 0.32813,0.375 v 1.64063 q 0,0.46875 -0.32813,0.46875 h -25.78125 q -0.51562,0 -0.51562,-0.46875 v -1.54688 q 0,-0.46875 0.51562,-0.46875 h 7.54688 q 0.89062,0 0.89062,-1.21875 -0.1875,-9.84375 -0.1875,-10.78125 0,-0.79687 0.23438,-15.796874 0.23437,-15.046875 0.23437,-15.703125 0,-14.109375 -1.64062,-14.109375 -12.09375,0 -17.0625,1.359375 -3.60938,0.9375 -4.64063,2.578125 -0.51562,0.84375 -0.9375,0.84375 -0.60937,0 -0.60937,-0.375 0,-0.515625 0.32812,-1.21875 1.3125,-4.734375 2.10938,-7.03125 0.1875,-0.609375 1.03125,-0.46875 0.98437,0.140625 9.65625,0.5625 10.125,0.46875 16.35937,0.46875 20.0625,0 22.78125,-0.09375 1.26563,-0.04687 2.34375,-0.1875 1.125,-0.1875 1.07813,-0.1875 0.60937,0 0.60937,0.75 z m 78.1875,1.453125 q 0,0.375 -0.28125,0.375 h -3.28125 q -1.21875,0 -2.57812,2.203125 -3.32813,5.484375 -8.0625,13.359375 -4.54688,7.171875 -9.42188,15.09375 -0.46875,1.03125 -0.46875,1.5 0,0.1875 -0.0469,8.671875 -0.0469,8.484374 -0.0469,9.187504 0,8.76562 1.82813,8.76562 h 8.0625 q 0.23437,0 0.32812,0.0937 0.14063,0.0937 0.14063,0.46875 v 1.54688 q 0,0.375 -0.375,0.375 h -25.26563 q -0.65625,0 -0.65625,-0.5625 v -1.26563 q 0,-0.65625 0.5625,-0.65625 h 7.6875 q 0.79688,0 0.79688,-1.17187 l -0.14063,-25.031254 q 0,-1.40625 -0.46875,-2.015625 -0.79687,-1.078125 -8.625,-14.109375 -3.375,-5.71875 -9.23437,-14.4375 -1.64063,-2.015625 -3.84375,-2.015625 h -1.6875 q -0.42188,0 -0.51563,-0.140625 -0.0937,-0.140625 -0.0937,-0.328125 v -1.359375 q 0,-0.65625 0.60938,-0.65625 h 21 q 0.65625,0 0.65625,0.5625 v 1.453125 q 0,0.46875 -0.375,0.46875 h -5.39063 q -1.21875,0 -1.21875,0.984375 0,0.703125 0.5625,1.921875 2.90625,4.875 6.9375,11.71875 5.625,10.03125 7.35938,12.46875 0.5625,0.796875 0.98437,0.28125 1.64063,-2.109375 5.57813,-8.8125 3.98437,-6.703125 5.25,-9.515625 2.10937,-4.59375 2.10937,-7.875 0,-1.171875 -1.21875,-1.171875 h -4.125 q -0.42187,0 -0.42187,-0.375 v -1.640625 q 0,-0.46875 0.42187,-0.46875 h 16.59375 q 0.375,0 0.375,0.375 z m 66.42188,28.40625 q 0,14.812499 -7.125,23.156249 -2.48438,2.95313 -4.125,4.26563 -3.42188,2.71875 -8.90625,4.73437 -4.40625,1.64063 -11.4375,1.64063 -11.20313,0 -16.875,-2.85938 -4.125,-2.0625 -6.9375,-5.29687 -3.46875,-3.9375 -4.96875,-8.67188 -1.82813,-5.671874 -1.82813,-14.953124 0,-6.328125 1.73438,-12 2.0625,-6.703125 6.14062,-11.296875 4.07813,-4.59375 11.71875,-7.59375 5.39063,-2.109375 12,-2.109375 10.03125,0 15.32813,2.390625 5.95312,2.671875 9.32812,7.3125 5.95313,8.109375 5.95313,21.28125 z m -7.40625,2.53125 q 0,-6.75 -1.54688,-11.8125 -1.73437,-5.859375 -5.53125,-10.171875 -3.46875,-3.9375 -8.25,-5.953125 -5.53125,-2.296875 -11.0625,-2.296875 -7.17187,0 -10.35937,2.296875 -5.8125,4.125 -7.96875,9.09375 -2.90625,6.5625 -2.90625,16.03125 0,13.96875 5.20312,21.984379 3.14063,4.875 9.42188,7.78125 4.92187,2.29687 10.73437,2.29687 6.5625,0 12.09375,-3.65625 4.3125,-2.8125 7.40625,-9.65625 2.76563,-6.234374 2.76563,-15.937499 z m 79.31249,-31.125 q 0,0.5625 -0.2812,0.5625 h -2.6719 q -3.6094,0 -4.0313,0.09375 -0.2343,0.890625 -0.2343,2.0625 -0.1875,3 -0.2813,9.375 -0.047,9.046875 0.2344,24.09375 0.4687,26.999999 -22.2188,26.999999 -9.7968,0 -15.8906,-2.10937 -6.0937,-2.10938 -8.7656,-7.40625 -2.2031,-4.40625 -2.4844,-13.265629 -0.1875,-5.765625 -0.1875,-28.875 0,-10.96875 -1.8281,-10.96875 h -6.32814 q -0.51563,0 -0.51563,-0.46875 v -1.453125 q 0,-0.5625 0.51563,-0.5625 h 23.01564 q 0.5625,0 0.5625,0.375 v 1.453125 q 0,0.65625 -0.375,0.65625 h -6.5156 q -0.5625,0 -0.6563,0.796875 -0.2812,1.921875 -0.2812,30.890625 0,10.078125 0.5625,13.640629 1.0781,6.70312 6.2343,10.17187 5.1563,3.46875 14.0157,3.46875 8.8125,0 14.1093,-5.29687 4.0313,-4.03125 4.0313,-15.937504 0,-15.75 -0.2813,-23.296875 -0.5625,-14.4375 -3,-14.4375 h -6.0468 q -0.375,0 -0.4688,-0.140625 -0.094,-0.140625 -0.094,-0.328125 v -1.546875 q 0,-0.46875 0.5625,-0.46875 h 19.125 q 0.4687,0 0.4687,0.46875 z"
       id="text1"
       style="font-size:96px;font-family:'Californian FB';-inkscape-font-specification:'Californian FB';white-space:pre;fill:#ffffff"
       transform="matrix(0.26458333,0,0,0.26458333,6.4289203,-8.1391558)"
       aria-label="IT'S NICE TO MEET YOU" />
  </g>
</svg>
